# File: UnstructuredGrid_Inversion_L0_Coarse_Iter05.vtk
# (No specific header documentation)

# vtk DataFile Version 2.0
Finite element discrete.
ASCII
DATASET UNSTRUCTURED_GRID
POINTS 1434 double
-2359.16	0	0
-1990.55	0	0
-1683.38	0	0
-1427.4	0	0
-1214.08	0	0
-1036.32	0	0
-888.182	0	0
-764.735	0	0
-661.863	0	0
-576.136	0	0
-504.696	0	0
-445.163	0	0
-395.553	0	0
-354.211	0	0
-319.76	0	0
-291.049	0	0
-267.124	0	0
-247.187	0	0
-230.572	0	0
-216.727	0	0
-205.189	0	0
-195.575	0	0
-187.562	0	0
-180.885	0	0
-175.321	0	0
-170.684	0	0
-166.82	0	0
-163.6	0	0
-161.75	0	0
-160	0	0
-157.5	0	0
-156.25	0	0
-155	0	0
-153.75	0	0
-152.5	0	0
-151.25	0	0
-150	0	0
-148.75	0	0
-147.5	0	0
-146.25	0	0
-145	0	0
-143.75	0	0
-142.5	0	0
-141.25	0	0
-140	0	0
-138.75	0	0
-137.5	0	0
-136.25	0	0
-135	0	0
-133.75	0	0
-132.5	0	0
-131.25	0	0
-130	0	0
-128.75	0	0
-127.5	0	0
-126.25	0	0
-125	0	0
-123.75	0	0
-122.5	0	0
-121.25	0	0
-120	0	0
-118.75	0	0
-117.5	0	0
-116.25	0	0
-115	0	0
-113.75	0	0
-112.5	0	0
-111.25	0	0
-110	0	0
-108.75	0	0
-107.5	0	0
-106.25	0	0
-105	0	0
-103.75	0	0
-102.5	0	0
-101.25	0	0
-100	0	0
-98.75	0	0
-97.5	0	0
-96.25	0	0
-95	0	0
-93.75	0	0
-92.5	0	0
-91.25	0	0
-90	0	0
-88.75	0	0
-87.5	0	0
-86.25	0	0
-85	0	0
-83.75	0	0
-82.5	0	0
-81.25	0	0
-80	0	0
-78.75	0	0
-77.5	0	0
-76.25	0	0
-75	0	0
-73.75	0	0
-72.5	0	0
-71.25	0	0
-70	0	0
-68.75	0	0
-67.5	0	0
-66.25	0	0
-65	0	0
-63.75	0	0
-62.5	0	0
-61.25	0	0
-60	0	0
-58.75	0	0
-57.5	0	0
-56.25	0	0
-55	0	0
-53.75	0	0
-52.5	0	0
-51.25	0	0
-50	0	0
-48.75	0	0
-47.5	0	0
-46.25	0	0
-45	0	0
-43.75	0	0
-42.5	0	0
-41.25	0	0
-40	0	0
-38.75	0	0
-37.5	0	0
-36.25	0	0
-35	0	0
-33.75	0	0
-32.5	0	0
-31.25	0	0
-30	0	0
-28.75	0	0
-27.5	0	0
-26.25	0	0
-25	0	0
-23.75	0	0
-22.5	0	0
-21.25	0	0
-20	0	0
-18.75	0	0
-17.5	0	0
-16.25	0	0
-15	0	0
-13.75	0	0
-12.5	0	0
-11.25	0	0
-10	0	0
-8.75	0	0
-7.5	0	0
-6.25	0	0
-5	0	0
-3.75	0	0
-2.5	0	0
-1.25	0	0
0	0	0
1.25	0	0
2.5	0	0
3.75	0	0
5	0	0
6.25	0	0
7.5	0	0
8.75	0	0
10	0	0
11.25	0	0
12.5	0	0
13.75	0	0
15	0	0
16.25	0	0
17.5	0	0
18.75	0	0
20	0	0
21.25	0	0
22.5	0	0
23.75	0	0
25	0	0
26.25	0	0
27.5	0	0
28.75	0	0
30	0	0
31.25	0	0
32.5	0	0
33.75	0	0
35	0	0
36.25	0	0
37.5	0	0
38.75	0	0
40	0	0
41.25	0	0
42.5	0	0
43.75	0	0
45	0	0
46.25	0	0
47.5	0	0
48.75	0	0
50	0	0
51.25	0	0
52.5	0	0
53.75	0	0
55	0	0
56.25	0	0
57.5	0	0
58.75	0	0
60	0	0
61.25	0	0
62.5	0	0
63.75	0	0
65	0	0
66.25	0	0
67.5	0	0
68.75	0	0
70	0	0
71.25	0	0
72.5	0	0
73.75	0	0
75	0	0
76.25	0	0
77.5	0	0
78.75	0	0
80	0	0
81.25	0	0
82.5	0	0
83.75	0	0
85	0	0
86.25	0	0
87.5	0	0
88.75	0	0
90	0	0
91.25	0	0
92.5	0	0
93.75	0	0
95	0	0
96.25	0	0
97.5	0	0
98.75	0	0
100	0	0
101.25	0	0
102.5	0	0
103.75	0	0
105	0	0
106.25	0	0
107.5	0	0
108.75	0	0
110	0	0
111.25	0	0
112.5	0	0
113.75	0	0
115	0	0
116.25	0	0
117.5	0	0
118.75	0	0
120	0	0
121.25	0	0
122.5	0	0
123.75	0	0
125	0	0
126.25	0	0
127.5	0	0
128.75	0	0
130	0	0
131.25	0	0
132.5	0	0
133.75	0	0
135	0	0
136.25	0	0
137.5	0	0
138.75	0	0
140	0	0
141.25	0	0
142.5	0	0
143.75	0	0
145	0	0
146.25	0	0
147.5	0	0
148.75	0	0
150	0	0
151.25	0	0
152.5	0	0
153.75	0	0
155	0	0
156.25	0	0
158.75	0	0
160.5	0	0
162.35	0	0
165.57	0	0
169.434	0	0
174.071	0	0
179.635	0	0
186.312	0	0
194.325	0	0
203.939	0	0
215.477	0	0
229.322	0	0
245.937	0	0
265.874	0	0
289.799	0	0
318.51	0	0
352.961	0	0
394.303	0	0
443.913	0	0
503.446	0	0
574.886	0	0
660.613	0	0
763.485	0	0
886.932	0	0
1035.07	0	0
1212.83	0	0
1426.15	0	0
1682.13	0	0
1989.3	0	0
2357.91	0	0
-2359.16	-5188.78	0
2357.91	-5188.78	0
-0.625	-4717.07	0
-0.625	-5188.78	0
-156.875	-2.00447	0
-59.375	-2.00447	0
38.125	-2.00447	0
135.625	-2.00447	0
-108.125	-2.00447	0
-133.125	-2.00447	0
-145.625	-2.00447	0
-151.875	-2.00447	0
-154.375	-2.00447	0
-10.625	-2.00447	0
-35.625	-2.00447	0
-48.125	-2.00447	0
-54.375	-2.00447	0
-56.875	-2.00447	0
-60.625	-1.29455	0
-66.875	-2.00447	0
85.625	-2.00447	0
61.875	-2.00447	0
49.375	-2.00447	0
43.125	-2.00447	0
40.625	-2.00447	0
39.375	-1.29455	0
36.875	-1.29455	0
30.625	-2.00447	0
155.625	-2.00447	0
145.625	-2.00447	0
139.375	-2.00447	0
136.875	-1.29455	0
134.375	-1.29455	0
128.125	-2.00447	0
-109.375	-1.29455	0
-115.625	-2.00447	0
-88.125	-2.00447	0
-98.125	-2.00447	0
-104.375	-2.00447	0
-106.875	-1.29455	0
-134.375	-1.29455	0
-124.375	-2.00447	0
-129.375	-2.00447	0
-131.875	-1.29455	0
-146.875	-1.29455	0
-140.625	-2.00447	0
-143.125	-2.00447	0
-144.375	-1.29455	0
-153.125	-1.29455	0
-149.375	-2.00447	0
-150.625	-1.29455	0
-155.625	-1.29455	0
-11.875	-1.29455	0
-18.125	-2.00447	0
9.375	-2.00447	0
-0.625	-2.00447	0
-6.875	-2.00447	0
-9.375	-1.29455	0
-36.875	-1.29455	0
-26.875	-2.00447	0
-31.875	-2.00447	0
-34.375	-1.29455	0
-49.375	-1.29455	0
-43.125	-2.00447	0
-45.625	-2.00447	0
-46.875	-1.29455	0
-55.625	-1.29455	0
-51.875	-2.00447	0
-53.125	-1.29455	0
-58.125	-1.29455	0
-61.875	-1.09989	0
-64.375	-2.00447	0
-65.625	-1.29455	0
-68.125	-1.29455	0
-74.375	-2.00447	0
105.625	-2.00447	0
95.625	-2.00447	0
89.375	-2.00447	0
86.875	-1.29455	0
84.375	-1.29455	0
78.125	-2.00447	0
69.375	-2.00447	0
65.625	-2.00447	0
63.125	-1.29455	0
60.625	-1.29455	0
54.375	-2.00447	0
51.875	-2.00447	0
50.625	-1.29455	0
48.125	-1.29455	0
45.625	-2.00447	0
44.375	-1.29455	0
41.875	-1.29455	0
35.625	-1.09989	0
33.125	-2.00447	0
31.875	-1.29455	0
29.375	-1.29455	0
23.125	-2.00447	0
154.375	-1.29455	0
149.375	-2.00447	0
146.875	-1.29455	0
144.375	-1.29455	0
141.875	-2.00447	0
140.625	-1.29455	0
138.125	-1.09989	0
133.125	-1.09989	0
130.625	-2.00447	0
129.375	-1.29455	0
126.875	-1.29455	0
120.625	-2.00447	0
-110.625	-1.09989	0
-113.125	-2.00447	0
-114.375	-1.29455	0
-116.875	-1.29455	0
-81.875	-2.00447	0
-85.625	-2.00447	0
-86.875	-1.29455	0
-89.375	-1.29455	0
-94.375	-2.00447	0
-96.875	-1.29455	0
-99.375	-1.29455	0
-101.875	-2.00447	0
-103.125	-1.29455	0
-105.625	-1.09989	0
-135.625	-1.09989	0
-120.625	-2.00447	0
-123.125	-1.29455	0
-125.625	-1.29455	0
-128.125	-1.29455	0
-130.625	-1.09989	0
-148.125	-1.09989	0
-138.125	-2.00447	0
-139.375	-1.29455	0
-141.875	-1.29455	0
-13.125	-1.09989	0
-15.625	-2.00447	0
-16.875	-1.29455	0
-19.375	-1.29455	0
15.625	-2.00447	0
11.875	-2.00447	0
10.625	-1.29455	0
8.125	-1.29455	0
3.125	-2.00447	0
0.625	-1.29455	0
-1.875	-1.29455	0
-4.375	-2.00447	0
-5.625	-1.29455	0
-8.125	-1.09989	0
-38.125	-1.09989	0
-23.125	-2.00447	0
-25.625	-1.29455	0
-28.125	-1.29455	0
-30.625	-1.29455	0
-33.125	-1.09989	0
-50.625	-1.09989	0
-40.625	-2.00447	0
-41.875	-1.29455	0
-44.375	-1.29455	0
-63.125	-1.08267	0
-61.5621	-3.20169	0
-69.375	-1.09989	0
-71.875	-2.00447	0
-73.125	-1.29455	0
-75.625	-1.29455	0
111.875	-2.00447	0
108.125	-2.00447	0
106.875	-1.29455	0
104.375	-1.29455	0
99.375	-2.00447	0
96.875	-1.29455	0
94.375	-1.29455	0
91.875	-2.00447	0
90.625	-1.29455	0
88.125	-1.09989	0
83.125	-1.09989	0
80.625	-2.00447	0
79.375	-1.29455	0
76.875	-1.29455	0
73.125	-2.00447	0
70.625	-1.29455	0
68.125	-1.29455	0
64.375	-1.09989	0
59.375	-1.09989	0
56.875	-2.00447	0
55.625	-1.29455	0
53.125	-1.29455	0
46.875	-1.09989	0
34.375	-1.08267	0
35.9379	-3.20169	0
28.125	-1.09989	0
25.625	-2.00447	0
24.375	-1.29455	0
21.875	-1.29455	0
153.125	-1.09989	0
150.625	-1.29455	0
148.125	-1.09989	0
143.125	-1.09989	0
137.767	-2.91077	0
131.875	-1.08267	0
133.438	-3.20169	0
125.625	-1.09989	0
123.125	-2.00447	0
121.875	-1.29455	0
119.375	-1.29455	0
-111.875	-1.08267	0
-110.312	-3.20169	0
-118.125	-1.09989	0
-79.375	-2.00447	0
-80.625	-1.29455	0
-83.125	-1.29455	0
-90.625	-1.09989	0
-93.125	-1.29455	0
-95.625	-1.09989	0
-100.625	-1.09989	0
-105.983	-2.91077	0
-136.875	-1.08267	0
-135.312	-3.20169	0
-121.875	-1.09989	0
-126.875	-1.09989	0
-130.983	-2.91077	0
-147.767	-2.91077	0
-14.375	-1.08267	0
-12.8121	-3.20169	0
-20.625	-1.09989	0
18.125	-2.00447	0
16.875	-1.29455	0
14.375	-1.29455	0
6.875	-1.09989	0
4.375	-1.29455	0
1.875	-1.09989	0
-3.125	-1.09989	0
-8.48316	-2.91077	0
-39.375	-1.08267	0
-37.8121	-3.20169	0
-24.375	-1.09989	0
-29.375	-1.09989	0
-33.4832	-2.91077	0
-50.2668	-2.91077	0
-62.5162	-2.26952	0
-70.625	-1.08267	0
-69.0621	-3.20169	0
-76.875	-1.09989	0
115.625	-2.00447	0
113.125	-1.29455	0
110.625	-1.29455	0
103.125	-1.09989	0
100.625	-1.29455	0
98.125	-1.09989	0
93.125	-1.09989	0
87.7668	-2.91077	0
81.875	-1.08267	0
83.4379	-3.20169	0
75.625	-1.09989	0
71.875	-1.09989	0
66.875	-1.09989	0
64.0168	-2.91077	0
58.125	-1.08267	0
59.6879	-3.20169	0
47.2332	-2.91077	0
34.9838	-2.26952	0
26.875	-1.08267	0
28.4379	-3.20169	0
20.625	-1.09989	0
151.875	-1.08267	0
153.438	-3.20169	0
147.767	-2.91077	0
143.483	-2.91077	0
132.484	-2.26952	0
124.375	-1.08267	0
125.938	-3.20169	0
118.125	-1.09989	0
-111.266	-2.26952	0
-119.375	-1.08267	0
-117.812	-3.20169	0
-84.375	-1.09989	0
-91.875	-1.08267	0
-90.3121	-3.20169	0
-95.9832	-2.91077	0
-100.267	-2.91077	0
-136.266	-2.26952	0
-122.233	-2.91077	0
-127.188	-3.20169	0
-13.7662	-2.26952	0
-21.875	-1.08267	0
-20.3121	-3.20169	0
13.125	-1.09989	0
5.625	-1.08267	0
7.18786	-3.20169	0
1.51684	-2.91077	0
-2.76684	-2.91077	0
-38.7662	-2.26952	0
-24.7332	-2.91077	0
-29.6879	-3.20169	0
-63.534	-4.26556	0
-70.0162	-2.26952	0
-78.125	-1.08267	0
-76.5621	-3.20169	0
114.375	-1.09989	0
109.375	-1.09989	0
101.875	-1.08267	0
103.438	-3.20169	0
97.7668	-2.91077	0
93.4832	-2.91077	0
82.4838	-2.26952	0
74.375	-1.08267	0
75.9379	-3.20169	0
71.5168	-2.91077	0
67.2332	-2.91077	0
58.7338	-2.26952	0
33.966	-4.26556	0
27.4838	-2.26952	0
19.375	-1.08267	0
20.9379	-3.20169	0
152.484	-2.26952	0
131.466	-4.26556	0
124.984	-2.26952	0
116.875	-1.08267	0
118.438	-3.20169	0
-112.284	-4.26556	0
-118.766	-2.26952	0
-84.0168	-2.91077	0
-91.2662	-2.26952	0
-137.284	-4.26556	0
-126.413	-2.24287	0
-14.784	-4.26556	0
-21.2662	-2.26952	0
13.4832	-2.91077	0
6.23376	-2.26952	0
-39.784	-4.26556	0
-28.9128	-2.24287	0
-71.034	-4.26556	0
-77.5162	-2.26952	0
114.017	-2.91077	0
109.733	-2.91077	0
102.484	-2.26952	0
81.466	-4.26556	0
74.9838	-2.26952	0
57.716	-4.26556	0
26.466	-4.26556	0
19.9838	-2.26952	0
151.466	-4.26556	0
123.966	-4.26556	0
117.484	-2.26952	0
-119.784	-4.26556	0
-92.284	-4.26556	0
-125.263	-3.96508	0
-22.284	-4.26556	0
5.21602	-4.26556	0
-27.7628	-3.96508	0
-78.534	-4.26556	0
101.466	-4.26556	0
73.966	-4.26556	0
18.966	-4.26556	0
116.466	-4.26556	0
39.375	-2.74999	0
-144.375	-2.74999	0
-153.125	-2.74999	0
-150.625	-2.74999	0
-155.625	-2.74999	0
-46.875	-2.74999	0
-55.625	-2.74999	0
-53.125	-2.74999	0
-58.125	-2.74999	0
-65.625	-2.74999	0
50.625	-2.74999	0
44.375	-2.74999	0
41.875	-2.74999	0
31.875	-2.74999	0
140.625	-2.74999	0
129.375	-2.74999	0
-114.375	-2.74999	0
-86.875	-2.74999	0
-103.125	-2.74999	0
-139.375	-2.74999	0
-141.875	-2.74999	0
-16.875	-2.74999	0
10.625	-2.74999	0
-5.625	-2.74999	0
-41.875	-2.74999	0
-44.375	-2.74999	0
-73.125	-2.74999	0
106.875	-2.74999	0
90.625	-2.74999	0
79.375	-2.74999	0
55.625	-2.74999	0
53.125	-2.74999	0
24.375	-2.74999	0
121.875	-2.74999	0
-80.625	-2.74999	0
16.875	-2.74999	0
150.698	-2.87844	0
-93.052	-2.87844	0
4.44795	-2.87844	0
100.698	-2.87844	0
37.7894	-3.98781	0
-146.012	-4.07398	0
-151.875	-3.42515	0
-149.242	-3.64826	0
-154.375	-3.42515	0
-157.445	-4.38169	0
-48.512	-4.07398	0
-54.375	-3.42515	0
-51.7419	-3.64826	0
-56.875	-3.42515	0
-59.7106	-3.98781	0
-67.2106	-3.98781	0
48.988	-4.07398	0
45.7581	-3.64826	0
40.625	-3.42515	0
43.125	-3.42515	0
30.2894	-3.98781	0
139.242	-3.64826	0
142.008	-3.64826	0
127.789	-3.98781	0
-115.961	-3.98781	0
-85.4919	-3.64826	0
-88.4606	-3.98781	0
-104.508	-3.64826	0
-101.742	-3.64826	0
-143.125	-3.42515	0
-140.625	-3.42515	0
-18.4606	-3.98781	0
12.0081	-3.64826	0
9.03942	-3.98781	0
-7.00807	-3.64826	0
-4.24193	-3.64826	0
-45.625	-3.42515	0
-43.125	-3.42515	0
-74.7106	-3.98781	0
108.258	-3.64826	0
105.289	-3.98781	0
89.2419	-3.64826	0
92.0081	-3.64826	0
77.7894	-3.98781	0
51.875	-3.42515	0
54.375	-3.42515	0
22.7894	-3.98781	0
120.289	-3.98781	0
-82.262	-4.07398	0
15.238	-4.07398	0
149.241	-3.64606	0
-94.5093	-3.64606	0
2.99069	-3.64606	0
99.2407	-3.64606	0
-150.619	-4.25517	0
-147.749	-4.78972	0
-153.125	-4.2447	0
-155.738	-4.4548	0
-53.1193	-4.25517	0
-50.2493	-4.78972	0
-55.625	-4.2447	0
-58.1696	-4.32728	0
47.2507	-4.78972	0
39.3304	-4.32728	0
44.3807	-4.25517	0
41.875	-4.2447	0
137.322	-5.64493	0
143.928	-5.64493	0
-86.9177	-4.32968	0
-106.428	-5.64493	0
-99.8218	-5.64493	0
-144.433	-4.35218	0
-141.875	-4.2447	0
-139.157	-4.64898	0
10.5823	-4.32968	0
-8.92823	-5.64493	0
-2.32177	-5.64493	0
-46.9331	-4.35218	0
-44.375	-4.2447	0
-41.6566	-4.64898	0
110.178	-5.64493	0
106.832	-4.32968	0
87.3218	-5.64493	0
93.9282	-5.64493	0
50.5669	-4.35218	0
53.125	-4.2447	0
55.8434	-4.64898	0
-83.9993	-4.78972	0
13.5007	-4.78972	0
-149.331	-5.31181	0
-154.394	-4.8174	0
-152.841	-6.56622	0
-155.648	-6.79184	0
-51.8314	-5.31181	0
-59.4845	-6.62861	0
38.0155	-6.62861	0
45.6686	-5.31181	0
147.325	-5.64183	0
-88.2374	-6.63281	0
-96.4253	-5.64183	0
-145.669	-6.74499	0
-143.133	-4.80031	0
-144.259	-5.95743	0
-141.613	-6.5397	0
-140.577	-4.86082	0
9.26264	-6.63281	0
1.07469	-5.64183	0
-48.1686	-6.74499	0
-45.6329	-4.80031	0
-46.7591	-5.95743	0
-44.113	-6.5397	0
-43.0774	-4.86082	0
105.513	-6.63281	0
108.287	-5.5418	0
97.3247	-5.64183	0
49.3314	-6.74499	0
51.8671	-4.80031	0
50.7409	-5.95743	0
53.387	-6.5397	0
54.4226	-4.86082	0
-85.576	-5.30478	0
11.924	-5.30478	0
-151.037	-6.07737	0
-54.1698	-6.84886	0
43.3302	-6.84886	0
-147.889	-7.02345	0
-143.701	-8.61153	0
-139.587	-6.63037	0
-50.3893	-7.02345	0
-46.2009	-8.61153	0
-42.0874	-6.63037	0
47.1107	-7.02345	0
51.2991	-8.61153	0
55.4126	-6.63037	0
-83.9617	-7.57552	0
13.5383	-7.57552	0
161.425	-2.96661	0
-129.176	-4.23741	0
-31.676	-4.23741	0
65.625	-3.88438	0
-160.875	-2.80625	0
109.067	-8.62564	0
-151.155	-9.21523	0
-137.913	-5.95678	0
-40.4133	-5.95678	0
57.0867	-5.95678	0
-82.4181	-6.16153	0
15.0819	-6.16153	0
159.625	-1.90034	0
63.2597	-5.97638	0
67.9903	-5.97638	0
-162.675	-1.82796	0
-137.67	-8.97808	0
-135.041	-6.06272	0
-40.1702	-8.97808	0
-37.5414	-6.06272	0
59.9586	-6.06272	0
57.3298	-8.97808	0
-158.75	-1.48943	0
157.5	-1.48943	0
157.388	-4.75365	0
-65.4123	-4.65683	0
-63.8457	-7.47327	0
-67.3843	-7.20595	0
32.0877	-4.65683	0
33.6543	-7.47327	0
30.1157	-7.20595	0
129.588	-4.65683	0
127.616	-7.20595	0
131.154	-7.47327	0
-114.162	-4.65683	0
-116.134	-7.20595	0
-112.596	-7.47327	0
-16.6623	-4.65683	0
-18.6343	-7.20595	0
-15.0957	-7.47327	0
-72.9123	-4.65683	0
-74.8843	-7.20595	0
-71.3457	-7.47327	0
79.5877	-4.65683	0
77.6157	-7.20595	0
81.1543	-7.47327	0
24.5877	-4.65683	0
22.6157	-7.20595	0
26.1543	-7.47327	0
122.088	-4.65683	0
120.116	-7.20595	0
123.654	-7.47327	0
-80.4238	-4.67269	0
-78.826	-7.49962	0
17.0762	-4.67269	0
18.674	-7.49962	0
112.147	-4.34669	0
-61.4305	-5.46517	0
36.0695	-5.46517	0
149.765	-6.06748	0
-90.1804	-5.46487	0
-93.9845	-6.06748	0
7.31963	-5.46487	0
3.51549	-6.06748	0
103.57	-5.46487	0
99.7655	-6.06748	0
-146.447	-9.53548	0
-140.731	-9.51616	0
-48.9465	-9.53548	0
-43.2314	-9.51616	0
48.5535	-9.53548	0
54.2686	-9.51616	0
-127.102	-5.79326	0
-29.6017	-5.79326	0
69.654	-4.32906	0
-165.21	-1.96272	0
-131.849	-5.98444	0
-34.3491	-5.98444	0
159.524	-4.12406	0
154.158	-6.89561	0
-68.9486	-5.50776	0
28.5514	-5.50776	0
126.051	-5.50776	0
133.731	-6.10471	0
-117.699	-5.50776	0
-110.019	-6.10471	0
-20.1986	-5.50776	0
-12.5188	-6.10471	0
-76.4486	-5.50776	0
76.0514	-5.50776	0
83.7312	-6.10471	0
21.0514	-5.50776	0
118.551	-5.50776	0
-81.3745	-8.85041	0
16.1255	-8.85041	0
113.244	-8.15219	0
114.324	-5.24676	0
-61.5165	-7.81824	0
35.9835	-7.81824	0
-91.0817	-9.16459	0
6.41826	-9.16459	0
102.668	-9.16459	0
71.4638	-7.82059	0
71.824	-5.24668	0
-163.344	-5.20354	0
162.33	-6.59445	0
-119.64	-8.86532	0
-22.1396	-8.86532	0
116.817	-8.67491	0
-58.5928	-10.4819	0
38.9072	-10.4819	0
74.6273	-8.3892	0
159.279	-7.2312	0
116.196	-6.50568	0
-63.2343	-11.3809	0
34.2657	-11.3809	0
73.6614	-6.42925	0
-122.658	-6.57003	0
-25.158	-6.57003	0
140.625	-6.89997	0
135.459	-4.29751	0
-103.125	-6.89997	0
-108.291	-4.29751	0
-5.625	-6.89997	0
-10.7911	-4.29751	0
90.625	-6.89997	0
85.4589	-4.29751	0
-56.8215	-6.622	0
40.6785	-6.622	0
-154.042	-9.19192	0
61.7053	-4.29093	0
-168.752	-3.22649	0
-129.441	-6.75099	0
-31.9407	-6.75099	0
-95.8875	-9.76866	0
1.61254	-9.76866	0
97.8625	-9.76866	0
-119.742	-6.56638	0
-22.2418	-6.56638	0
147.863	-9.76866	0
-55.7287	-9.45988	0
41.7713	-9.45988	0
-131.874	-10.2298	0
-34.3741	-10.2298	0
-126.735	-10.0229	0
-29.2354	-10.0229	0
61.7209	-10.2946	0
-143.592	-13.4763	0
-46.0921	-13.4763	0
51.4079	-13.4763	0
-77.9342	-12.2616	0
19.5658	-12.2616	0
-84.7125	-12.3618	0
12.7875	-12.3618	0
-159.932	-8.112	0
78.0189	-12.5898	0
161.826	-11.8053	0
134.637	-10.9213	0
-109.113	-10.9213	0
-11.6127	-10.9213	0
84.6373	-10.9213	0
-52.3412	-9.81484	0
45.1588	-9.81484	0
-138.338	-14.156	0
-152.636	-13.8337	0
-40.8379	-14.156	0
56.6621	-14.156	0
-157.149	-9.53268	0
72.1337	-13.1778	0
-55.5218	-14.5637	0
41.9782	-14.5637	0
-160.819	-13.2856	0
-155.295	-12.1052	0
-156.737	-17.2326	0
167.502	-5.04214	0
121.456	-13.0139	0
-68.9865	-12.9487	0
28.5135	-12.9487	0
-173.002	-3.57998	0
-100.111	-9.85918	0
-2.61063	-9.85918	0
93.6394	-9.85918	0
143.639	-9.85918	0
-123.059	-10.23	0
-25.5593	-10.23	0
-73.4316	-11.5301	0
24.0684	-11.5301	0
-87.6132	-10.1977	0
9.88676	-10.1977	0
137.848	-9.23383	0
128.956	-13.0139	0
-105.902	-9.23383	0
-114.794	-13.0139	0
-8.40177	-9.23383	0
-17.2937	-13.0139	0
87.8482	-9.23383	0
-50.3259	-13.5387	0
47.1741	-13.5387	0
67.532	-11.0327	0
114.192	-14.1429	0
-125.23	-16.0214	0
-27.7296	-16.0214	0
-91.0041	-15.2431	0
6.49588	-15.2431	0
138.949	-15.2265	0
125.86	-10.67	0
-104.801	-15.2265	0
-119.657	-13.7896	0
-7.30125	-15.2265	0
-22.1566	-13.7896	0
88.9488	-15.2265	0
-87.9293	-13.6474	0
9.5707	-13.6474	0
125.206	-14.7506	0
-86.9079	-19.376	0
10.5921	-19.376	0
-85.0855	-16.0957	0
12.4145	-16.0957	0
-80.7366	-20.6582	0
-81.2897	-14.5893	0
16.7634	-20.6582	0
16.2103	-14.5893	0
-60.1541	-14.8527	0
37.3459	-14.8527	0
-164.483	-9.99498	0
171.752	-3.7796	0
-178.103	-4.34246	0
-48.1089	-20.2966	0
49.3911	-20.2966	0
-97.857	-16.4408	0
-0.357008	-16.4408	0
145.896	-16.5643	0
95.8956	-16.5643	0
129.866	-19.8957	0
120.546	-19.8957	0
-73.3842	-19.0551	0
24.1158	-19.0551	0
-65.0415	-16.0865	0
32.4585	-16.0865	0
-170.411	-9.00371	0
176.853	-4.30746	0
171.652	-11.2269	0
-57.3745	-22.1364	0
40.1255	-22.1364	0
-77.3004	-16.7576	0
20.1996	-16.7576	0
156.407	-11.8265	0
-148.111	-13.7449	0
-150.234	-20.9056	0
-145.567	-18.3943	0
66.3931	-19.4844	0
-115.981	-21.1998	0
-18.4812	-21.1998	0
-184.224	-5.20119	0
100.876	-14.3233	0
-167.928	-17.5163	0
182.974	-5.20831	0
-61.5645	-19.5632	0
35.9355	-19.5632	0
159.15	-20.5063	0
-143.873	-27.1338	0
101.979	-23.4299	0
106.238	-13.2958	0
-67.595	-22.1173	0
29.905	-22.1173	0
104.458	-18.5094	0
-62.4916	-25.7706	0
35.0084	-25.7706	0
111.109	-24.9439	0
109.82	-17.4301	0
114.946	-19.6962	0
117.539	-25.6187	0
-110.309	-16.4309	0
-105.624	-24.6609	0
-12.8091	-16.4309	0
-8.12381	-24.6609	0
82.6951	-17.1778	0
-93.4037	-21.7178	0
4.09634	-21.7178	0
-179.786	-14.5865	0
-191.569	-6.2437	0
-162.294	-18.8948	0
178.951	-11.2986	0
190.319	-6.24228	0
-75.0298	-29.1695	0
22.4702	-29.1695	0
-54.1054	-32.1591	0
43.3946	-32.1591	0
125.206	-25.9965	0
75.7457	-19.5837	0
88.951	-26.2304	0
-157.231	-25.7006	0
-68.433	-28.679	0
-85.8783	-29.9133	0
29.067	-28.679	0
11.6217	-29.9133	0
113.242	-35.5921	0
-167.321	-27.2397	0
-70.945	-39.5028	0
-62.1412	-34.0092	0
26.555	-39.5028	0
35.3588	-34.0092	0
-132.08	-17.1739	0
-34.5805	-17.1739	0
140.277	-27.0352	0
-186.971	-12.2416	0
-200.382	-7.4919	0
175.186	-22.9668	0
199.132	-7.49218	0
185.837	-11.4735	0
81.4235	-24.7445	0
121.017	-33.0294	0
-138.207	-21.8812	0
-126.807	-27.5836	0
-40.6472	-21.7567	0
-29.3068	-27.5836	0
132.715	-26.9017	0
-187.139	-24.9349	0
-195.015	-13.647	0
182.206	-18.7902	0
193.753	-13.7204	0
70.9524	-30.5608	0
-135.425	-30.5654	0
-45.9099	-28.8551	0
128.224	-32.5586	0
82.8045	-37.5583	0
136.365	-34.4101	0
125.375	-44.3517	0
105.308	-31.6437	0
-55.1566	-45.9702	0
42.3434	-45.9702	0
-210.958	-8.98964	0
209.708	-8.98958	0
185.393	-32.1349	0
-126.334	-42.8938	0
-37.5036	-29.5875	0
150.147	-36.9963	0
96.6556	-30.3683	0
102.943	-46.341	0
-46.302	-39.6986	0
-204.5	-16.5001	0
203.252	-16.4872	0
-145.152	-42.3979	0
99.9044	-38.3133	0
-30.1918	-41.7297	0
91.3888	-37.1587	0
87.7375	-51.124	0
94.6778	-44.8808	0
97.2092	-54.674	0
58.049	-23.1731	0
51.3883	-28.7531	0
51.334	-39.709	0
60.8369	-33.2663	0
-97.2079	-32.7637	0
0.292137	-32.7637	0
-175.542	-22.8718	0
-178.436	-38.2383	0
-17.4452	-35.3275	0
-223.649	-10.7884	0
222.399	-10.7884	0
-114.854	-35.055	0
-197.203	-23.5659	0
195.447	-25.5944	0
-160.133	-40.518	0
-40.6725	-57.0334	0
113.439	-59.7023	0
86.7807	-68.0876	0
69.7141	-46.1943	0
-215.903	-19.7729	0
214.653	-19.7749	0
-194.183	-39.0412	0
55.9481	-55.9202	0
-207.644	-27.0475	0
-223.439	-36.654	0
-87.2375	-48.4521	0
10.2625	-48.4521	0
-238.88	-12.9458	0
237.63	-12.9458	0
206.377	-27.0628	0
222.201	-36.69	0
198.834	-41.7972	0
-229.583	-23.7363	0
228.333	-23.7359	0
168.598	-40.5677	0
140.556	-50.0881	0
-155.657	-65.4818	0
-108.377	-56.8663	0
-13.5521	-58.9686	0
-257.156	-15.5354	0
255.906	-15.5354	0
-185.022	-63.8911	0
-247.226	-40.0478	0
244.75	-28.48	0
-243.528	-26.3504	0
-257.476	-29.9328	0
-280.403	-22.2196	0
-268.571	-51.4281	0
71.0779	-62.7298	0
-65.6552	-74.7282	0
33.1902	-72.7614	0
183.394	-49.0946	0
128.483	-59.0843	0
148.946	-73.9472	0
121.952	-83.5176	0
156.824	-51.9466	0
-136.211	-60.3993	0
277.837	-18.6418	0
-171.081	-53.7985	0
-68.9829	-57.218	0
70.3377	-90.5892	0
28.8809	-56.3299	0
202.816	-70.2043	0
264.45	-34.1785	0
-86.1363	-69.5491	0
55.8883	-76.2657	0
12.356	-69.4445	0
304.154	-22.3711	0
245.462	-62.9203	0
-137.784	-94.1241	0
40.1443	-106.598	0
288.09	-41.0112	0
-84.2008	-104.982	0
19.2456	-93.2602	0
-210.552	-59.1894	0
-305.404	-20.5379	0
172.185	-69.8583	0
335.736	-26.8451	0
-110.104	-85.7371	0
270.194	-58.6162	0
-10.6216	-88.9961	0
-232.687	-56.8944	0
-225.3	-93.5358	0
-294.488	-44.9259	0
-336.986	-27.3262	0
167.122	-109.168	0
316.459	-49.2175	0
8.30673	-133.442	0
-201.792	-83.2898	0
-291.956	-89.7363	0
264.73	-100.428	0
295.967	-66.917	0
-197.116	-126.108	0
-171.832	-92.2424	0
96.9266	-92.7603	0
80.1506	-134.312	0
124.126	-127.904	0
373.632	-32.2128	0
-115.014	-119.402	0
-39.1315	-85.6926	0
350.501	-59.0587	0
-29.0177	-123.084	0
325.791	-80.7337	0
-374.882	-32.1226	0
-156.832	-129.812	0
405.116	-82.7279	0
-76.4838	-161.603	0
298.485	-100.579	0
364.982	-100.489	0
281.366	-154.632	0
331.757	-117.65	0
375.889	-162.349	0
-329.509	-69.3812	0
-262.178	-153.925	0
419.108	-38.6561	0
-420.358	-38.6743	0
-24.0706	-177.685	0
-125.259	-167.445	0
400.334	-126.148	0
-343.373	-139.777	0
112.414	-201.626	0
-182.036	-183.019	0
446.163	-183.449	0
472.352	-112.105	0
217.218	-119.229	0
473.68	-46.3872	0
-474.93	-46.3836	0
-91.5031	-242.739	0
-389.074	-94.7147	0
169.301	-172.872	0
43.5104	-193.172	0
539.166	-55.6655	0
-540.416	-55.6662	0
-141.397	-219.894	0
-441.342	-87.1402	0
-500.494	-101.67	0
-427.354	-174.742	0
186.966	-278.472	0
-220.849	-266.624	0
-594.225	-142.686	0
-147.834	-299.86	0
-7.82701	-261.999	0
573.662	-189.772	0
617.75	-66.7984	0
-619	-66.7983	0
377.191	-285.589	0
69.5286	-266.139	0
-318.764	-238.604	0
-66.1666	-324.061	0
712.049	-80.1573	0
-713.299	-80.1573	0
-237.638	-400.328	0
26.1256	-352.366	0
-133.888	-402.695	0
654.166	-149.244	0
678.904	-298.602	0
789.217	-203.603	0
-826.458	-96.1888	0
120.524	-345.844	0
-42.8427	-412.627	0
824.477	-95.7191	0
261.78	-418.703	0
82.8431	-486.877	0
-104.293	-553.659	0
-187.819	-491.651	0
-359.171	-525.877	0
-244.291	-654.978	0
504.43	-297.152	0
-744.171	-269.633	0
-962.251	-115.428	0
979.846	-206.202	0
-465.817	-364.398	0
426.83	-445.215	0
937.517	-101.241	0
1053.58	-115.452	0
1162.24	-279.059	0
-877.251	-226.528	0
-1125.2	-138.512	0
881.566	-422.385	0
-879.832	-461.485	0
-1025.98	-252.248	0
-2359.16	-2594.39	0
-1257.97	-354.491	0
-11.8203	-828.815	0
590.514	-436.635	0
-1320.74	-166.213	0
-508.754	-774.647	0
301.792	-696.629	0
519.533	-648.12	0
-1555.39	-199.461	0
-585.301	-559.264	0
2357.91	-2594.39	0
744.683	-606.034	0
488.449	-1021.54	0
-2359.16	-1297.19	0
-816.321	-762.661	0
2357.91	-1024	0
1107.62	-733.711	0
673.581	-848.946	0
-1836.97	-239.347	0
1554.14	-385.37	0
857.779	-1232.12	0
-275.217	-938.694	0
-2359.16	-648.597	0
-1632.22	-670.93	0
-655.047	-1231.16	0
32.6798	-1306.13	0
-2359.16	-324.299	0
-2104.53	-242.087	0
-2166.22	-486.448	0
-2002.67	-876.916	0
-1144.32	-674.544	0
1835.71	-264.948	0
-1087.64	-1118.07	0
1888.03	-776.685	0
2357.91	-512	0
2357.91	-256	0
2098.93	-384	0
2127.45	-652.292	0
2113.58	-918.19	0
2357.91	-768	0
1773.89	-1209.12	0
2357.91	-1809.19	0
2357.91	-1416.6	0
2127.82	-1220.3	0
1991.66	-1612.9	0
465.18	-1491.52	0
-1592.74	-1178.04	0
1911.76	-2201.79	0
-1179.89	-5188.78	0
1178.64	-5188.78	0
-1052.7	-1868.31	0
1489.7	-902.822	0
1318.99	-1346.21	0
-590.259	-5188.78	0
589.009	-5188.78	0
-48.3603	-2092.37	0
959.016	-1812.12	0
2357.91	-4164.78	0
-885.076	-4243.26	0
883.826	-4243.26	0
1505.28	-3113.52	0
-2359.16	-1945.79	0
-1684.4	-2270.09	0
-2359.16	-3891.58	0
-777.627	-2998.27	0
-1664.99	-3174.6	0
-19.9711	-3690.79	0
CELLS 2533	10132
3 314	1420	315	
3 1415	1425	1430	
3 859	30	29	
3 1357	1376	1351	
3 1350	1351	1352	
3 31	30	316	
3 108	107	330	
3 1337	1326	1324	
3 186	185	338	
3 1278	1268	1299	
3 1233	1275	1268	
3 265	264	319	
3 1305	1333	1299	
3 187	186	318	
3 1193	1244	1200	
3 109	108	317	
3 681	347	725	
3 1210	1207	1209	
3 682	726	426	
3 1200	1128	1134	
3 1134	1128	1118	
3 421	516	346	
3 1171	1159	1179	
3 470	330	382	
3 352	435	527	
3 843	903	826	
3 39	356	322	
3 685	358	730	
3 358	359	666	
3 838	354	530	
3 823	755	757	
3 324	363	669	
3 1084	984	903	
3 707	323	667	
3 1008	1118	1010	
3 264	263	344	
3 686	365	732	
3 669	710	758	
3 467	689	466	
3 324	669	709	
3 709	757	667	
3 445	533	364	
3 531	361	708	
3 499	338	404	
3 370	459	544	
3 25	1015	968	
3 117	374	327	
3 912	26	968	
3 852	912	941	
3 714	329	673	
3 941	912	968	
3 761	671	714	
3 1004	793	991	
3 671	712	328	
3 469	106	105	
3 28	27	852	
3 520	425	90	
3 330	470	317	
3 363	324	32	
3 474	607	386	
3 29	28	841	
3 104	103	384	
3 224	332	225	
3 32	324	33	
3 205	333	206	
3 34	323	35	
3 362	35	323	
3 676	401	402	
3 34	33	360	
3 494	495	695	
3 32	31	363	
3 744	694	392	
3 841	28	852	
3 112	378	328	
3 362	36	35	
3 34	360	323	
3 796	705	895	
3 38	37	441	
3 318	499	705	
3 39	322	40	
3 39	38	356	
3 190	335	191	
3 665	337	318	
3 41	40	359	
3 498	184	183	
3 42	444	43	
3 43	357	44	
3 182	181	406	
3 444	357	43	
3 336	188	337	
3 40	322	359	
3 188	336	189	
3 537	449	168	
3 49	352	321	
3 679	722	723	
3 352	49	48	
3 49	321	50	
3 577	768	341	
3 47	435	48	
3 410	506	576	
3 342	415	508	
3 51	50	355	
3 508	343	319	
3 353	56	438	
3 354	439	53	
3 266	415	267	
3 440	51	355	
3 267	342	268	
3 50	321	355	
3 272	341	273	
3 357	443	44	
3 408	503	623	
3 260	259	418	
3 55	438	56	
3 555	475	245	
3 353	437	57	
3 528	58	437	
3 515	67	66	
3 424	517	584	
3 514	628	420	
3 436	591	654	
3 61	517	62	
3 349	589	771	
3 347	64	63	
3 68	421	346	
3 85	348	86	
3 62	424	63	
3 58	57	437	
3 347	63	424	
3 65	64	423	
3 77	349	78	
3 69	346	320	
3 72	350	73	
3 346	69	68	
3 69	320	70	
3 525	351	320	
3 67	421	68	
3 516	320	346	
3 526	47	46	
3 71	70	351	
3 913	527	854	
3 77	431	349	
3 350	433	73	
3 56	353	57	
3 434	71	351	
3 45	44	443	
3 70	320	351	
3 71	434	72	
3 347	423	64	
3 350	434	525	
3 55	54	529	
3 509	262	261	
3 73	433	74	
3 195	334	196	
3 52	354	53	
3 524	76	75	
3 51	440	52	
3 428	521	587	
3 431	77	76	
3 530	355	321	
3 356	441	531	
3 430	79	78	
3 435	352	48	
3 81	80	429	
3 348	85	428	
3 531	322	356	
3 430	523	79	
3 706	322	531	
3 430	78	349	
3 361	37	36	
3 666	359	322	
3 84	428	85	
3 33	324	360	
3 348	427	86	
3 427	87	86	
3 667	360	324	
3 551	385	471	
3 358	41	359	
3 441	356	38	
3 520	90	89	
3 361	36	362	
3 519	91	425	
3 92	91	519	
3 31	316	363	
3 474	552	607	
3 668	362	323	
3 585	520	89	
3 323	360	667	
3 84	83	521	
3 41	358	42	
3 532	145	144	
3 95	474	96	
3 460	602	657	
3 471	385	101	
3 386	473	97	
3 136	135	461	
3 96	386	97	
3 143	142	447	
3 163	366	164	
3 100	471	101	
3 155	367	156	
3 331	103	102	
3 107	382	330	
3 533	325	364	
3 101	385	102	
3 458	542	368	
3 331	102	385	
3 600	777	367	
3 542	369	325	
3 108	330	317	
3 543	125	124	
3 499	318	338	
3 381	329	110	
3 123	122	467	
3 106	382	107	
3 149	458	150	
3 134	371	135	
3 110	329	111	
3 130	372	131	
3 112	328	113	
3 380	113	328	
3 547	373	326	
3 112	111	378	
3 544	326	370	
3 110	109	381	
3 914	544	856	
3 331	384	103	
3 150	368	151	
3 95	94	552	
3 669	363	316	
3 379	115	114	
3 116	115	465	
3 711	327	548	
3 117	327	118	
3 377	118	327	
3 459	370	126	
3 117	116	374	
3 374	465	548	
3 119	376	120	
3 121	468	375	
3 376	119	377	
3 121	375	122	
3 122	375	467	
3 111	329	378	
3 468	121	120	
3 670	377	327	
3 118	377	119	
3 374	548	327	
3 673	329	381	
3 126	125	459	
3 672	380	328	
3 127	326	128	
3 373	128	326	
3 379	114	380	
3 127	126	370	
3 465	374	116	
3 673	381	317	
3 373	464	129	
3 106	469	382	
3 372	463	131	
3 546	133	132	
3 331	385	551	
3 134	462	371	
3 383	105	104	
3 128	373	129	
3 109	317	381	
3 370	326	127	
3 671	378	329	
3 674	384	331	
3 595	448	534	
3 550	100	99	
3 545	136	461	
3 448	365	141	
3 98	97	473	
3 461	135	371	
3 383	104	384	
3 96	474	386	
3 141	140	448	
3 240	387	241	
3 146	445	364	
3 142	365	447	
3 389	560	742	
3 142	141	365	
3 479	754	704	
3 534	140	139	
3 427	682	426	
3 692	740	476	
3 146	145	445	
3 560	390	332	
3 147	325	148	
3 369	148	325	
3 226	484	227	
3 147	146	364	
3 227	389	228	
3 220	219	487	
3 369	458	149	
3 490	564	213	
3 368	457	151	
3 457	152	151	
3 492	566	394	
3 455	367	155	
3 617	662	489	
3 148	369	149	
3 561	222	221	
3 364	325	147	
3 232	388	233	
3 462	134	133	
3 549	382	469	
3 113	380	114	
3 129	464	130	
3 1350	1352	1349	
3 321	352	527	
3 541	154	153	
3 155	154	455	
3 208	394	209	
3 538	598	452	
3 367	454	156	
3 617	489	564	
3 207	492	208	
3 157	156	454	
3 201	200	495	
3 158	453	159	
3 163	452	366	
3 334	569	717	
3 540	157	454	
3 567	203	202	
3 538	162	161	
3 566	395	333	
3 400	569	334	
3 452	163	162	
3 675	399	334	
3 451	164	366	
3 165	164	451	
3 398	197	399	
3 407	500	572	
3 197	398	198	
3 400	497	569	
3 168	167	537	
3 497	400	194	
3 169	449	536	
3 169	536	170	
3 676	402	335	
3 573	623	503	
3 336	337	665	
3 537	167	596	
3 401	193	192	
3 573	173	172	
3 493	396	204	
3 189	336	403	
3 503	174	173	
3 405	183	182	
3 407	179	500	
3 502	175	408	
3 570	404	498	
3 408	175	174	
3 677	403	336	
3 498	404	184	
3 500	179	178	
3 405	182	406	
3 181	180	339	
3 404	338	185	
3 571	178	177	
3 407	180	179	
3 678	406	339	
3 180	407	339	
3 572	339	407	
3 451	687	450	
3 338	318	186	
3 505	277	276	
3 680	345	724	
3 318	337	187	
3 276	410	505	
3 404	185	184	
3 174	503	408	
3 279	504	409	
3 335	190	403	
3 274	506	275	
3 334	195	400	
3 191	335	402	
3 413	270	269	
3 189	403	190	
3 576	411	341	
3 188	187	337	
3 410	751	701	
3 406	181	339	
3 176	175	502	
3 192	191	402	
3 401	192	402	
3 342	508	722	
3 497	194	193	
3 679	414	342	
3 396	493	568	
3 334	399	196	
3 413	269	414	
3 400	195	194	
3 507	412	271	
3 342	267	415	
3 397	199	496	
3 578	416	509	
3 200	199	397	
3 495	200	397	
3 345	419	580	
3 198	496	199	
3 417	261	260	
3 197	196	399	
3 508	415	343	
3 680	418	345	
3 493	204	203	
3 485	562	391	
3 205	204	396	
3 395	206	333	
3 579	256	255	
3 333	205	396	
3 417	260	418	
3 893	644	781	
3 395	207	206	
3 422	66	65	
3 211	491	393	
3 565	491	210	
3 582	421	515	
3 395	492	207	
3 554	608	247	
3 491	211	210	
3 254	253	513	
3 559	231	230	
3 509	416	262	
3 515	421	67	
3 563	616	488	
3 422	65	423	
3 212	490	213	
3 218	488	392	
3 517	61	583	
3 393	490	212	
3 681	423	347	
3 587	348	428	
3 488	218	217	
3 752	702	429	
3 391	223	485	
3 487	219	392	
3 87	426	88	
3 392	219	218	
3 90	425	91	
3 216	563	217	
3 60	59	436	
3 426	87	427	
3 485	223	222	
3 81	429	522	
3 344	416	510	
3 332	390	225	
3 728	350	525	
3 391	224	223	
3 522	82	81	
3 588	430	349	
3 226	390	484	
3 432	75	74	
3 228	389	483	
3 228	483	229	
3 431	524	589	
3 232	481	388	
3 79	523	80	
3 226	225	390	
3 84	521	428	
3 224	391	332	
3 682	427	348	
3 1361	1383	1386	
3 347	424	584	
3 1426	1424	1427	
3 412	507	577	
3 524	431	76	
3 481	232	231	
3 432	74	433	
3 480	233	388	
3 611	478	556	
3 683	433	350	
3 350	72	434	
3 480	558	234	
3 590	435	526	
3 240	478	387	
3 239	238	556	
3 440	530	354	
3 479	236	235	
3 442	46	45	
3 233	480	234	
3 525	434	351	
3 591	437	353	
3 419	511	580	
3 53	439	54	
3 242	241	477	
3 609	555	244	
3 438	529	634	
3 241	387	477	
3 58	528	59	
3 55	529	438	
3 581	628	514	
3 354	52	440	
3 246	554	247	
3 252	514	420	
3 37	361	441	
3 475	554	246	
3 530	440	355	
3 244	555	245	
3 634	439	592	
3 240	239	478	
3 424	62	517	
3 358	666	730	
3 514	252	251	
3 684	443	357	
3 419	257	511	
3 513	253	420	
3 442	45	443	
3 420	253	252	
3 526	435	47	
3 685	444	358	
3 511	257	256	
3 593	445	532	
3 259	258	345	
3 416	344	263	
3 365	448	595	
3 419	258	257	
3 446	144	143	
3 258	419	345	
3 42	358	444	
3 686	447	365	
3 344	319	264	
3 534	139	594	
3 861	949	915	
3 319	343	265	
3 138	137	460	
3 416	263	262	
3 446	143	447	
3 168	449	169	
3 266	343	415	
3 165	450	166	
3 268	342	414	
3 268	414	269	
3 687	451	366	
3 272	412	341	
3 703	453	753	
3 266	265	343	
3 366	452	598	
3 418	259	345	
3 532	445	145	
3 250	581	251	
3 531	441	361	
3 539	160	159	
3 272	271	412	
3 368	542	735	
3 273	341	411	
3 273	411	274	
3 162	538	452	
3 409	504	575	
3 159	453	539	
3 157	540	158	
3 410	276	275	
3 455	541	600	
3 278	504	279	
3 280	279	409	
3 961	325	533	
3 340	280	409	
3 456	153	152	
3 274	411	506	
3 599	454	367	
3 688	457	368	
3 860	281	340	
3 542	458	369	
3 282	849	283	
3 284	283	837	
3 368	150	458	
3 849	837	283	
3 456	152	457	
3 601	459	543	
3 916	575	651	
3 448	140	534	
3 1011	837	942	
3 837	1011	285	
3 602	461	371	
3 837	285	284	
3 464	547	372	
3 575	861	340	
3 466	124	123	
3 281	280	340	
3 541	455	154	
3 131	463	132	
3 837	849	915	
3 640	463	603	
3 1062	286	1011	
3 916	861	575	
3 133	546	462	
3 896	751	798	
3 462	546	640	
3 372	130	464	
3 291	1145	1169	
3 548	465	379	
3 1068	1141	1096	
3 295	294	1226	
3 376	670	737	
3 1178	1169	1145	
3 115	379	465	
3 916	651	896	
3 547	464	373	
3 689	467	375	
3 1241	1262	1237	
3 120	376	468	
3 1294	1304	1291	
3 1297	1304	1294	
3 690	468	376	
3 298	1283	299	
3 466	123	467	
3 382	549	470	
3 1346	304	1335	
3 620	499	570	
3 308	1361	1386	
3 1364	1383	1361	
3 472	99	98	
3 1308	1353	1328	
3 716	674	331	
3 1329	1335	303	
3 105	383	469	
3 1243	1226	1249	
3 543	459	125	
3 837	915	942	
3 136	545	137	
3 507	271	270	
3 450	165	451	
3 605	471	550	
3 516	959	320	
3 691	386	739	
3 211	393	212	
3 550	471	100	
3 691	473	386	
3 472	98	473	
3 552	94	606	
3 93	92	518	
3 387	478	611	
3 245	475	246	
3 479	558	612	
3 242	476	243	
3 692	477	387	
3 476	242	477	
3 557	237	236	
3 236	479	557	
3 613	784	388	
3 239	556	478	
3 612	480	388	
3 234	558	235	
3 482	230	229	
3 481	559	613	
3 484	560	389	
3 559	481	231	
3 693	483	389	
3 482	229	483	
3 560	484	390	
3 389	227	484	
3 486	221	220	
3 614	485	561	
3 488	616	392	
3 561	485	222	
3 694	487	392	
3 486	220	487	
3 563	216	615	
3 215	214	489	
3 394	566	840	
3 488	217	563	
3 617	490	393	
3 213	564	214	
3 565	210	209	
3 491	565	618	
3 566	492	395	
3 394	208	492	
3 494	202	201	
3 619	493	567	
3 675	745	398	
3 567	493	203	
3 695	495	397	
3 494	201	495	
3 198	398	496	
3 696	496	398	
3 193	401	497	
3 569	497	401	
3 183	405	498	
3 404	570	499	
3 721	678	339	
3 957	319	510	
3 501	177	176	
3 621	500	571	
3 697	408	747	
3 571	500	178	
3 697	502	408	
3 501	176	502	
3 573	172	622	
3 171	170	535	
3 574	278	277	
3 624	504	574	
3 575	504	624	
3 278	574	504	
3 576	506	411	
3 410	275	506	
3 270	413	507	
3 577	507	413	
3 344	510	319	
3 409	575	340	
3 261	417	509	
3 416	578	510	
3 417	418	680	
3 1062	287	286	
3 512	255	254	
3 626	511	579	
3 698	420	748	
3 579	511	256	
3 698	513	420	
3 512	254	513	
3 581	250	627	
3 249	248	553	
3 66	422	515	
3 421	582	516	
3 443	684	442	
3 604	470	549	
3 583	61	60	
3 630	517	583	
3 631	425	520	
3 474	95	552	
3 699	519	425	
3 518	92	519	
3 585	89	88	
3 520	585	631	
3 586	83	82	
3 632	521	586	
3 587	521	632	
3 83	586	521	
3 588	523	430	
3 429	80	523	
3 75	432	524	
3 589	524	432	
3 384	674	383	
3 523	588	429	
3 46	442	526	
3 435	590	527	
3 668	707	755	
3 654	584	630	
3 591	528	437	
3 436	59	528	
3 54	439	529	
3 592	439	354	
3 423	681	422	
3 591	436	528	
3 1205	1210	1209	
3 725	871	681	
3 144	446	532	
3 445	593	533	
3 595	636	657	
3 733	450	687	
3 594	139	138	
3 636	534	594	
3 637	449	537	
3 503	173	573	
3 700	536	449	
3 535	170	536	
3 596	167	166	
3 537	596	637	
3 597	161	160	
3 638	538	597	
3 598	538	638	
3 161	597	538	
3 599	540	454	
3 453	158	540	
3 153	456	541	
3 600	541	456	
3 406	678	405	
3 540	599	453	
3 124	466	543	
3 459	601	544	
3 737	690	376	
3 372	547	839	
3 602	545	461	
3 460	137	545	
3 132	463	546	
3 603	463	372	
3 447	686	446	
3 602	460	545	
3 378	671	328	
3 376	377	670	
3 469	383	549	
3 604	549	383	
3 99	472	550	
3 471	605	551	
3 472	473	691	
3 771	589	729	
3 606	94	93	
3 642	552	606	
3 664	553	643	
3 514	251	581	
3 643	554	475	
3 247	608	248	
3 609	244	243	
3 555	609	644	
3 610	238	237	
3 645	556	610	
3 611	556	645	
3 238	610	556	
3 612	558	480	
3 479	235	558	
3 230	482	559	
3 613	559	482	
3 391	562	332	
3 332	562	963	
3 221	486	561	
3 485	614	562	
3 662	616	647	
3 625	510	578	
3 615	216	215	
3 647	563	615	
3 617	564	490	
3 489	214	564	
3 209	394	565	
3 618	565	394	
3 396	568	333	
3 487	694	486	
3 202	494	567	
3 493	619	568	
3 569	718	763	
3 568	967	333	
3 718	401	676	
3 398	399	675	
3 498	405	570	
3 620	570	405	
3 177	501	571	
3 500	621	572	
3 777	600	736	
3 501	502	697	
3 622	172	171	
3 650	573	622	
3 277	505	574	
3 574	701	624	
3 577	723	768	
3 751	576	798	
3 341	412	577	
3 508	319	957	
3 679	413	414	
3 870	920	625	
3 509	417	578	
3 625	578	417	
3 255	512	579	
3 511	626	580	
3 784	613	743	
3 512	513	698	
3 627	250	249	
3 653	581	627	
3 515	422	582	
3 629	582	422	
3 60	436	583	
3 517	630	584	
3 774	844	633	
3 353	656	591	
3 88	426	585	
3 631	585	426	
3 82	522	586	
3 586	702	632	
3 629	516	582	
3 729	683	728	
3 349	431	589	
3 525	320	959	
3 683	432	433	
3 873	922	629	
3 526	442	590	
3 633	590	442	
3 634	353	438	
3 844	854	633	
3 739	877	691	
3 353	634	656	
3 532	446	593	
3 635	593	446	
3 138	460	594	
3 534	636	595	
3 780	845	639	
3 371	659	602	
3 166	450	596	
3 637	596	450	
3 160	539	597	
3 597	703	638	
3 533	593	635	
3 736	688	735	
3 367	455	600	
3 542	325	961	
3 688	456	457	
3 876	924	635	
3 543	466	601	
3 639	601	466	
3 640	371	462	
3 845	856	639	
3 639	544	601	
3 371	640	659	
3 605	641	551	
3 721	865	678	
3 550	472	605	
3 641	605	472	
3 93	518	606	
3 552	642	607	
3 631	426	726	
3 749	699	425	
3 643	608	554	
3 553	248	608	
3 243	476	609	
3 644	609	476	
3 237	557	610	
3 610	704	645	
3 646	562	614	
3 743	693	742	
3 388	481	613	
3 560	332	963	
3 693	482	483	
3 882	927	646	
3 561	486	614	
3 646	614	486	
3 215	489	615	
3 563	647	616	
3 648	568	619	
3 846	787	834	
3 618	393	491	
3 833	908	819	
3 648	846	857	
3 618	851	911	
3 567	494	619	
3 648	619	494	
3 621	649	572	
3 893	781	932	
3 571	501	621	
3 649	621	501	
3 171	535	622	
3 573	650	623	
3 637	450	733	
3 750	700	449	
3 505	701	574	
3 701	505	410	
3 626	652	580	
3 575	624	651	
3 579	512	626	
3 652	626	512	
3 249	553	627	
3 581	653	628	
3 653	664	628	
3 608	643	553	
3 527	590	633	
3 674	716	862	
3 583	436	630	
3 654	630	436	
3 348	727	682	
3 518	519	699	
3 522	702	586	
3 702	522	429	
3 668	361	362	
3 731	805	774	
3 439	634	529	
3 634	592	656	
3 874	686	732	
3 806	775	734	
3 594	460	636	
3 657	636	460	
3 366	734	687	
3 535	536	700	
3 539	703	597	
3 703	539	453	
3 738	690	779	
3 738	812	780	
3 463	640	546	
3 640	603	659	
3 788	749	631	
3 799	769	727	
3 606	518	642	
3 660	642	518	
3 475	555	644	
3 644	476	740	
3 476	477	692	
3 741	692	387	
3 557	704	610	
3 704	557	479	
3 744	880	694	
3 724	868	680	
3 615	489	647	
3 662	647	489	
3 786	746	696	
3 820	787	746	
3 747	883	697	
3 598	638	658	
3 622	535	650	
3 663	650	535	
3 576	341	798	
3 1078	1119	1077	
3 643	475	893	
3 886	698	748	
3 627	553	653	
3 664	653	553	
3 774	633	684	
3 954	591	656	
3 629	681	871	
3 587	632	655	
3 592	354	838	
3 774	805	828	
3 780	639	689	
3 955	602	659	
3 686	874	635	
3 663	623	650	
3 603	372	839	
3 780	812	831	
3 800	752	588	
3 607	642	660	
3 926	744	616	
3 611	645	661	
3 851	618	840	
3 648	695	787	
3 807	753	599	
3 750	637	789	
3 388	815	612	
3 781	644	740	
3 336	719	677	
3 665	719	336	
3 666	322	706	
3 730	773	685	
3 316	30	859	
3 1076	941	968	
3 323	707	668	
3 361	668	708	
3 791	758	793	
3 667	324	709	
3 670	327	711	
3 737	779	690	
3 672	328	712	
3 672	379	380	
3 548	379	713	
3 379	672	713	
3 470	715	317	
3 795	715	894	
3 716	331	551	
3 604	383	674	
3 675	334	717	
3 745	786	696	
3 677	335	403	
3 764	665	705	
3 318	705	665	
3 335	677	720	
3 721	339	572	
3 620	405	678	
3 679	342	722	
3 413	679	723	
3 724	345	580	
3 625	417	680	
3 725	347	584	
3 629	422	681	
3 587	727	348	
3 799	727	897	
3 683	350	728	
3 432	683	729	
3 357	444	685	
3 633	442	684	
3 706	772	666	
3 357	685	731	
3 732	365	595	
3 635	446	686	
3 598	734	366	
3 806	734	899	
3 688	368	735	
3 456	688	736	
3 375	468	690	
3 639	466	689	
3 711	778	670	
3 375	690	738	
3 739	386	607	
3 641	472	691	
3 611	741	387	
3 813	741	901	
3 693	389	742	
3 482	693	743	
3 744	392	616	
3 646	486	694	
3 397	496	696	
3 648	494	695	
3 717	785	675	
3 397	696	746	
3 747	408	623	
3 649	501	697	
3 748	420	628	
3 652	512	698	
3 749	425	631	
3 660	518	699	
3 750	449	637	
3 663	535	700	
3 751	410	576	
3 624	701	651	
3 752	429	588	
3 632	702	655	
3 753	453	599	
3 638	703	658	
3 754	479	612	
3 645	704	661	
3 717	569	763	
3 696	398	745	
3 668	755	708	
3 755	790	708	
3 316	710	669	
3 1061	991	941	
3 707	757	755	
3 531	708	756	
3 1142	1117	1155	
3 757	707	667	
3 1232	1233	1231	
3 773	731	685	
3 672	712	759	
3 759	794	713	
3 671	329	714	
3 713	672	759	
3 714	673	762	
3 548	713	760	
3 673	317	715	
3 715	762	673	
3 714	762	761	
3 671	761	712	
3 864	716	917	
3 862	863	604	
3 569	401	718	
3 718	765	797	
3 676	335	720	
3 765	718	676	
3 766	719	764	
3 720	765	676	
3 719	766	677	
3 665	764	719	
3 867	721	918	
3 865	866	620	
3 767	956	722	
3 413	723	577	
3 508	767	722	
3 751	651	701	
3 869	724	919	
3 919	724	580	
3 872	725	921	
3 921	725	584	
3 682	727	769	
3 726	788	631	
3 726	769	821	
3 889	699	749	
3 770	958	728	
3 432	729	589	
3 525	770	728	
3 752	655	702	
3 730	666	772	
3 731	684	357	
3 730	772	802	
3 684	731	774	
3 875	732	923	
3 923	732	595	
3 687	734	775	
3 733	789	637	
3 733	775	822	
3 891	700	750	
3 776	960	735	
3 456	736	600	
3 542	776	735	
3 753	658	703	
3 737	670	778	
3 738	689	375	
3 737	778	809	
3 689	738	780	
3 878	739	925	
3 660	889	890	
3 692	741	782	
3 644	893	475	
3 813	782	741	
3 692	782	740	
3 783	962	742	
3 482	743	613	
3 560	783	742	
3 754	661	704	
3 881	744	926	
3 940	953	662	
3 745	675	785	
3 746	695	397	
3 745	785	817	
3 695	746	787	
3 884	747	928	
3 663	891	892	
3 887	748	929	
3 887	886	748	
3 769	726	682	
3 897	727	587	
3 775	733	687	
3 899	734	598	
3 341	768	798	
3 722	956	723	
3 349	771	800	
3 728	958	729	
3 367	777	807	
3 735	960	736	
3 388	784	815	
3 742	962	743	
3 823	757	792	
3 756	706	531	
3 709	791	757	
3 788	835	847	
3 758	709	669	
3 758	791	709	
3 792	757	791	
3 790	756	708	
3 749	788	847	
3 760	711	548	
3 712	761	759	
3 789	836	848	
3 894	715	470	
3 761	824	759	
3 715	795	762	
3 824	761	964	
3 750	789	848	
3 933	950	664	
3 705	499	895	
3 764	705	796	
3 766	720	677	
3 766	764	965	
3 965	825	766	
3 765	720	766	
3 625	680	868	
3 288	1093	289	
3 724	869	868	
3 956	768	723	
3 800	588	349	
3 752	800	898	
3 755	823	790	
3 862	604	674	
3 792	793	966	
3 809	811	779	
3 756	801	706	
3 773	730	802	
3 790	826	756	
3 773	805	731	
3 803	706	801	
3 904	804	827	
3 807	599	367	
3 753	807	900	
3 713	794	760	
3 678	865	620	
3 845	780	831	
3 646	927	562	
3 760	808	711	
3 779	737	809	
3 794	829	760	
3 779	812	738	
3 810	711	808	
3 906	811	830	
3 754	815	902	
3 814	842	781	
3 611	901	741	
3 740	782	814	
3 825	765	766	
3 819	786	817	
3 333	967	566	
3 815	754	612	
3 763	816	717	
3 786	745	817	
3 797	832	763	
3 786	820	746	
3 763	718	797	
3 820	834	787	
3 821	788	726	
3 835	788	821	
3 733	822	789	
3 836	789	822	
3 710	793	758	
3 773	802	804	
3 710	316	859	
3 1076	1116	1092	
3 791	793	792	
3 878	877	739	
3 1092	1116	1192	
3 829	794	824	
3 761	762	964	
3 759	824	794	
3 629	922	516	
3 747	884	883	
3 635	924	533	
3 814	781	740	
3 825	797	765	
3 717	816	818	
3 625	868	870	
3 920	994	1026	
3 844	774	828	
3 803	827	804	
3 897	898	936	
3 898	897	655	
3 801	756	826	
3 656	592	909	
3 803	772	706	
3 802	772	803	
3 803	801	827	
3 802	803	804	
3 826	903	801	
3 913	838	530	
3 773	804	805	
3 828	805	804	
3 910	659	603	
3 832	797	825	
3 899	900	937	
3 900	899	658	
3 864	863	862	
3 829	808	760	
3 810	778	711	
3 809	778	810	
3 810	808	830	
3 809	810	811	
3 829	905	808	
3 914	839	547	
3 779	811	812	
3 831	812	811	
3 940	617	911	
3 510	625	920	
3 782	813	814	
3 842	814	813	
3 902	815	973	
3 902	901	661	
3 867	866	865	
3 832	816	763	
3 818	785	717	
3 817	785	818	
3 818	816	833	
3 817	818	819	
3 832	907	816	
3 618	394	840	
3 786	819	820	
3 834	820	819	
3 769	799	821	
3 835	821	799	
3 775	806	822	
3 836	822	806	
3 823	792	843	
3 790	823	826	
3 934	894	863	
3 810	830	811	
3 935	895	866	
3 818	833	819	
3 991	710	841	
3 725	872	871	
3 823	843	826	
3 871	873	629	
3 854	527	633	
3 909	592	838	
3 894	934	795	
3 874	732	875	
3 998	824	977	
3 855	831	906	
3 856	544	639	
3 910	603	839	
3 895	935	796	
3 850	983	1035	
3 999	825	978	
3 880	882	646	
3 840	850	851	
3 787	846	648	
3 898	800	971	
3 903	827	801	
3 900	807	972	
3 876	635	874	
3 651	751	896	
3 860	915	849	
3 913	321	527	
3 804	904	828	
3 914	326	544	
3 811	906	831	
3 850	840	566	
3 617	393	911	
3 912	852	27	
3 841	941	991	
3 938	901	902	
3 1083	949	916	
3 966	843	792	
3 943	1029	872	
3 853	844	828	
3 853	854	844	
3 855	845	831	
3 855	856	845	
3 850	967	857	
3 568	648	857	
3 847	835	930	
3 699	889	660	
3 848	836	931	
3 700	891	663	
3 281	860	282	
3 860	861	915	
3 846	858	857	
3 646	694	880	
3 983	857	858	
3 983	850	857	
3 26	912	27	
3 26	25	968	
3 903	984	827	
3 853	828	904	
3 913	969	838	
3 913	530	321	
3 830	808	905	
3 1031	875	944	
3 914	970	839	
3 914	547	326	
3 834	858	846	
3 819	908	834	
3 833	816	907	
3 908	858	834	
3 29	841	859	
3 710	859	841	
3 861	860	340	
3 849	282	860	
3 1019	768	956	
3 1077	288	287	
3 551	917	716	
3 716	864	862	
3 1022	878	987	
3 795	934	946	
3 877	641	691	
3 879	864	917	
3 572	918	721	
3 721	867	865	
3 1023	884	988	
3 796	935	947	
3 883	649	697	
3 885	867	918	
3 698	886	652	
3 868	869	870	
3 1012	888	887	
3 942	949	993	
3 1027	869	1042	
3 290	289	1120	
3 974	943	872	
3 871	872	873	
3 897	936	799	
3 1016	771	958	
3 921	974	872	
3 984	1000	904	
3 975	944	875	
3 874	875	876	
3 899	937	806	
3 1017	777	960	
3 923	975	875	
3 985	1002	906	
3 739	607	925	
3 877	878	879	
3 864	879	1013	
3 879	641	877	
3 925	890	878	
3 890	987	878	
3 744	881	880	
3 880	881	882	
3 784	743	962	
3 1018	784	962	
3 953	926	662	
3 881	992	882	
3 747	623	928	
3 883	884	885	
3 867	885	1014	
3 885	649	883	
3 928	892	884	
3 892	988	884	
3 628	929	748	
3 886	887	888	
3 919	888	869	
3 888	652	886	
3 664	950	929	
3 1012	887	945	
3 749	847	889	
3 889	847	890	
3 930	890	847	
3 890	930	987	
3 750	848	891	
3 891	848	892	
3 931	892	848	
3 892	931	988	
3 932	781	842	
3 643	893	933	
3 470	604	894	
3 863	894	604	
3 499	620	895	
3 866	895	620	
3 938	1091	1099	
3 1146	1093	1119	
3 587	655	897	
3 655	752	898	
3 800	771	1016	
3 958	771	729	
3 598	658	899	
3 658	753	900	
3 807	777	1017	
3 960	777	736	
3 611	661	901	
3 661	754	902	
3 784	1018	815	
3 901	938	813	
3 843	966	1001	
3 964	946	977	
3 1020	1044	943	
3 985	830	905	
3 977	824	964	
3 965	947	978	
3 951	1059	946	
3 986	833	907	
3 1046	944	1021	
3 992	881	948	
3 1060	947	952	
3 813	938	1099	
3 838	969	909	
3 654	974	921	
3 839	970	910	
3 657	975	923	
3 618	911	393	
3 911	851	939	
3 24	1015	25	
3 852	941	841	
3 853	979	854	
3 854	979	913	
3 855	980	856	
3 856	980	914	
3 916	949	861	
3 285	1011	286	
3 1019	798	768	
3 290	1120	1145	
3 551	641	917	
3 879	917	641	
3 572	649	918	
3 885	918	649	
3 580	652	919	
3 888	919	652	
3 920	870	994	
3 957	920	767	
3 584	654	921	
3 954	654	591	
3 922	873	995	
3 959	922	770	
3 595	657	923	
3 955	657	602	
3 924	876	996	
3 961	924	776	
3 607	660	925	
3 890	925	660	
3 616	662	926	
3 617	940	662	
3 927	882	997	
3 963	927	783	
3 623	663	928	
3 892	928	663	
3 628	664	929	
3 643	933	664	
3 936	1024	799	
3 799	1024	835	
3 937	1025	806	
3 806	1025	836	
3 1036	932	842	
3 929	945	887	
3 893	932	933	
3 932	945	950	
3 864	951	863	
3 951	934	863	
3 867	952	866	
3 952	935	866	
3 946	934	951	
3 936	1039	1048	
3 982	1021	955	
3 937	1040	1049	
3 832	999	907	
3 870	869	1027	
3 986	1003	908	
3 926	948	881	
3 911	939	940	
3 939	948	953	
3 941	1076	1061	
3 991	793	710	
3 916	896	976	
3 1145	1157	1178	
3 1020	954	981	
3 873	872	1029	
3 905	829	998	
3 876	875	1031	
3 1091	973	1069	
3 942	915	949	
3 971	936	898	
3 825	965	978	
3 937	900	972	
3 858	1003	983	
3 1005	939	1035	
3 1035	939	851	
3 1047	1069	1018	
3 1169	1196	292	
3 932	950	933	
3 929	950	945	
3 827	984	904	
3 947	935	952	
3 990	1058	931	
3 902	973	938	
3 939	953	940	
3 926	953	948	
3 656	909	954	
3 981	969	979	
3 659	910	955	
3 982	970	980	
3 920	1026	767	
3 798	976	896	
3 920	957	510	
3 508	957	767	
3 1028	922	995	
3 770	922	1028	
3 922	959	516	
3 525	959	770	
3 1030	924	996	
3 776	924	1030	
3 924	961	533	
3 542	961	776	
3 1032	927	997	
3 882	992	997	
3 927	963	562	
3 560	963	783	
3 762	795	964	
3 946	964	795	
3 764	796	965	
3 947	965	796	
3 1009	1001	966	
3 1004	966	793	
3 857	967	568	
3 566	967	850	
3 1063	24	23	
3 1015	1063	1076	
3 969	913	979	
3 909	969	981	
3 970	914	980	
3 910	970	982	
3 954	909	981	
3 835	989	930	
3 910	982	955	
3 836	990	931	
3 783	927	1032	
3 976	1068	1083	
3 654	954	974	
3 954	943	974	
3 657	955	975	
3 955	944	975	
3 939	1005	948	
3 949	1083	993	
3 1006	998	977	
3 998	829	824	
3 1007	999	978	
3 999	832	825	
3 904	1000	853	
3 1056	930	989	
3 906	830	985	
3 855	906	1002	
3 853	1000	979	
3 1020	943	954	
3 855	1002	980	
3 1021	944	955	
3 908	833	986	
3 908	1003	858	
3 843	1001	1084	
3 1044	1029	943	
3 1022	879	878	
3 1045	1067	1017	
3 1023	885	884	
3 1019	1026	1041	
3 989	1048	1053	
3 1013	951	864	
3 990	1049	1054	
3 1014	952	867	
3 971	800	1016	
3 873	1029	995	
3 972	807	1017	
3 876	1031	996	
3 1061	1092	1008	
3 1090	22	1117	
3 1005	992	948	
3 1087	1035	983	
3 798	1019	976	
3 1153	1070	1125	
3 945	932	1036	
3 1005	1087	1126	
3 1000	1139	979	
3 1066	971	1016	
3 1002	1140	980	
3 1067	972	1017	
3 1018	1032	1047	
3 1018	973	815	
3 1006	977	946	
3 905	998	1033	
3 1007	978	947	
3 907	999	1034	
3 1084	903	843	
3 1033	1064	985	
3 1001	1009	1010	
3 1086	1084	1085	
3 1033	985	905	
3 985	1064	1002	
3 1034	986	907	
3 994	870	1027	
3 1008	1004	991	
3 966	1004	1009	
3 1003	1065	1186	
3 869	888	1042	
3 1043	1066	1016	
3 1065	986	1034	
3 1025	1049	990	
3 1070	1027	1050	
3 1270	1269	1261	
3 1085	1128	1097	
3 1004	1008	1009	
3 1010	1009	1008	
3 1076	1092	1061	
3 984	1086	1000	
3 942	993	1011	
3 1062	1077	287	
3 1071	1012	1036	
3 1019	1041	1068	
3 1048	1051	1053	
3 1013	1074	951	
3 1049	1052	1054	
3 1014	1075	952	
3 23	22	1090	
3 1061	1008	991	
3 770	1028	958	
3 1109	995	1029	
3 776	1030	960	
3 1111	996	1031	
3 783	1032	962	
3 992	1113	997	
3 767	1026	956	
3 1027	1070	994	
3 981	979	1139	
3 981	1037	1020	
3 982	980	1140	
3 982	1038	1021	
3 987	1056	1081	
3 1013	879	1022	
3 988	1058	1082	
3 1014	885	1023	
3 1039	936	971	
3 835	1024	989	
3 1040	937	972	
3 836	1025	990	
3 1041	1026	994	
3 1019	956	1026	
3 1012	945	1036	
3 1027	1042	1050	
3 1043	1028	995	
3 1016	958	1028	
3 1086	984	1084	
3 1028	1043	1016	
3 1045	1030	996	
3 1017	960	1030	
3 1046	1031	944	
3 1030	1045	1017	
3 1047	1032	997	
3 1018	962	1032	
3 998	1006	1033	
3 1064	1033	1006	
3 999	1007	1034	
3 1065	1034	1007	
3 850	1035	851	
3 1087	983	1003	
3 947	1060	1007	
3 976	1019	1068	
3 1006	946	1059	
3 1024	1048	989	
3 1081	1022	987	
3 1040	972	1067	
3 1039	971	1066	
3 1056	987	930	
3 1059	1079	1006	
3 1058	988	931	
3 973	1018	1069	
3 1173	1141	1163	
3 888	1012	1042	
3 1050	1042	1012	
3 1088	1029	1044	
3 1043	1109	1110	
3 1020	1037	1044	
3 1044	1037	1088	
3 1089	1031	1046	
3 1045	1111	1112	
3 1021	1038	1046	
3 1046	1038	1089	
3 988	1082	1023	
3 1003	986	1065	
3 936	1048	1024	
3 1048	1039	1051	
3 937	1049	1025	
3 1049	1040	1052	
3 938	973	1091	
3 1012	1071	1050	
3 1043	1110	1066	
3 1060	1080	1007	
3 1038	982	1140	
3 1087	1005	1035	
3 1055	1053	1051	
3 989	1053	1056	
3 1057	1054	1052	
3 990	1054	1058	
3 1139	1037	981	
3 1112	1115	1067	
3 1053	1055	1056	
3 1081	1055	1072	
3 1151	1152	1140	
3 1102	1099	1091	
3 1054	1057	1058	
3 1082	1057	1073	
3 1072	1013	1022	
3 951	1074	1059	
3 1073	1014	1023	
3 952	1075	1060	
3 1015	1076	968	
3 24	1063	1015	
3 993	1078	1011	
3 1077	1093	288	
3 1117	22	21	
3 1063	1090	1116	
3 1064	1006	1079	
3 1045	1112	1067	
3 1080	1065	1007	
3 1070	1153	1041	
3 1109	1043	995	
3 1039	1066	1114	
3 1111	1045	996	
3 1040	1067	1115	
3 1070	1041	994	
3 1220	1096	1173	
3 1126	992	1005	
3 1071	1070	1050	
3 1099	1106	1036	
3 1096	1220	1144	
3 1047	997	1113	
3 1124	1187	1080	
3 1055	1121	1072	
3 1094	1059	1074	
3 1057	1122	1073	
3 1095	1060	1075	
3 1013	1072	1074	
3 1094	1079	1059	
3 1014	1073	1075	
3 1095	1080	1060	
3 23	1090	1063	
3 1116	1076	1063	
3 1078	1062	1011	
3 1078	1077	1062	
3 1096	993	1083	
3 1096	1078	993	
3 1066	1110	1114	
3 1052	1132	1057	
3 1040	1115	1052	
3 1071	1107	1108	
3 1055	1081	1056	
3 1022	1081	1072	
3 1057	1082	1058	
3 1023	1082	1073	
3 976	1083	916	
3 1096	1083	1068	
3 1010	1085	1001	
3 1084	1001	1085	
3 1092	1118	1008	
3 1103	1094	1100	
3 1086	1085	1097	
3 1086	1097	1149	
3 1124	1080	1104	
3 1127	1069	1047	
3 1150	1037	1139	
3 1130	1055	1051	
3 1103	1123	1079	
3 1095	1101	1104	
3 1090	1117	1142	
3 1117	21	1143	
3 1069	1098	1102	
3 1099	842	813	
3 1207	1154	1198	
3 1142	1116	1090	
3 1119	1093	1077	
3 289	1093	1120	
3 1072	1100	1074	
3 1094	1074	1100	
3 1073	1101	1075	
3 1095	1075	1101	
3 1036	1106	1107	
3 1108	1148	1125	
3 1128	1010	1118	
3 1095	1104	1080	
3 1101	1073	1122	
3 1108	1125	1071	
3 1091	1069	1102	
3 1036	842	1099	
3 1114	1051	1039	
3 1121	1100	1072	
3 1079	1123	1160	
3 1094	1103	1079	
3 1102	1098	1105	
3 1099	1102	1106	
3 1129	1100	1121	
3 1187	1186	1065	
3 1152	1089	1038	
3 1069	1127	1098	
3 1104	1101	1131	
3 1071	1125	1070	
3 1102	1105	1106	
3 1036	1107	1071	
3 1106	1105	1107	
3 1108	1107	1105	
3 1126	1087	1158	
3 1068	1041	1141	
3 1029	1088	1109	
3 1110	1109	1088	
3 1037	1150	1088	
3 1197	1150	1171	
3 1031	1089	1111	
3 1112	1111	1089	
3 1140	1152	1038	
3 1103	1100	1129	
3 1113	992	1126	
3 1047	1113	1127	
3 1190	1114	1110	
3 1114	1130	1051	
3 1191	1115	1112	
3 1115	1132	1052	
3 1168	1177	1143	
3 1177	1209	1198	
3 20	1143	21	
3 19	1168	20	
3 1118	1092	1134	
3 1010	1128	1085	
3 1096	1144	1078	
3 1144	1119	1078	
3 1144	1156	1119	
3 290	1145	291	
3 1088	1150	1197	
3 1122	1131	1101	
3 1172	1176	1181	
3 1098	1165	1105	
3 1130	1121	1055	
3 1104	1138	1124	
3 1132	1122	1057	
3 1148	1108	1133	
3 1105	1133	1108	
3 295	1243	296	
3 1147	1127	1113	
3 1126	1147	1113	
3 1162	1147	1158	
3 1165	1133	1105	
3 1192	1134	1092	
3 1154	1207	1193	
3 1135	1129	1121	
3 1103	1129	1136	
3 1159	1171	1150	
3 1121	1130	1135	
3 1137	1131	1122	
3 1104	1131	1138	
3 1151	1172	1152	
3 1122	1132	1137	
3 1172	1181	1152	
3 1199	1217	1215	
3 1211	1135	1130	
3 1136	1123	1103	
3 1134	1192	1193	
3 1188	1187	1124	
3 1129	1135	1136	
3 1166	1136	1135	
3 1224	1191	1194	
3 1165	1174	1180	
3 1131	1137	1138	
3 1167	1138	1137	
3 1000	1149	1139	
3 1149	1150	1139	
3 1064	1151	1002	
3 1140	1002	1151	
3 1214	294	293	
3 293	1196	1214	
3 1143	1155	1117	
3 1116	1142	1154	
3 19	18	1195	
3 1155	1177	1198	
3 1153	1161	1163	
3 1153	1163	1141	
3 1146	1120	1093	
3 1146	1156	1157	
3 1146	1119	1156	
3 1120	1146	1157	
3 1087	1003	1186	
3 1126	1158	1147	
3 1164	1148	1133	
3 1153	1141	1041	
3 1086	1149	1000	
3 1097	1159	1149	
3 1150	1149	1159	
3 1130	1114	1190	
3 1160	1064	1079	
3 1064	1160	1151	
3 1136	1166	1123	
3 1089	1152	1194	
3 1148	1161	1125	
3 1153	1125	1161	
3 1270	1298	1269	
3 1128	1200	1179	
3 20	1168	1143	
3 1154	1142	1155	
3 1157	1156	1199	
3 1120	1157	1145	
3 1156	1144	1170	
3 292	291	1169	
3 1138	1167	1124	
3 1147	1162	1127	
3 1097	1128	1179	
3 1159	1097	1179	
3 1176	1123	1166	
3 1151	1160	1172	
3 1148	1164	1161	
3 1141	1173	1096	
3 1191	1132	1115	
3 1163	1161	1164	
3 1180	1133	1165	
3 1220	1237	1170	
3 1162	1158	1204	
3 1253	1263	297	
3 1127	1174	1098	
3 1165	1098	1174	
3 1130	1190	1211	
3 1204	1158	1189	
3 1204	1208	1234	
3 1133	1175	1164	
3 17	1213	18	
3 1143	1177	1155	
3 1170	1199	1156	
3 1178	1206	1169	
3 1164	1175	1202	
3 1249	1226	1229	
3 1198	1154	1155	
3 1179	1242	1171	
3 1176	1160	1123	
3 1172	1160	1176	
3 1164	1221	1163	
3 1164	1202	1238	
3 1162	1182	1127	
3 1184	1180	1182	
3 1180	1184	1175	
3 1184	1185	1175	
3 1212	1132	1191	
3 1194	1152	1181	
3 1168	19	1195	
3 1195	1205	1168	
3 1169	1206	1196	
3 293	292	1196	
3 1193	1227	1244	
3 1222	1179	1200	
3 1182	1180	1174	
3 1133	1180	1175	
3 1166	1201	1176	
3 1176	1201	1181	
3 1127	1182	1174	
3 1162	1183	1184	
3 1137	1132	1212	
3 1185	1202	1175	
3 1162	1184	1182	
3 1185	1184	1183	
3 1183	1162	1204	
3 1237	1248	1217	
3 1065	1080	1187	
3 1158	1087	1186	
3 1188	1124	1167	
3 1186	1187	1189	
3 1204	1188	1208	
3 1186	1189	1158	
3 1187	1188	1189	
3 1188	1204	1189	
3 1088	1197	1110	
3 1223	1190	1197	
3 1194	1112	1089	
3 1194	1181	1224	
3 1116	1154	1192	
3 1193	1192	1154	
3 1231	1233	1228	
3 1312	10	1318	
3 1181	1201	1224	
3 1191	1112	1194	
3 1218	1205	1195	
3 1218	1213	1230	
3 1199	1178	1157	
3 1206	1219	1196	
3 1197	1171	1223	
3 1190	1110	1197	
3 1205	1177	1168	
3 1177	1205	1209	
3 1206	1215	1216	
3 1199	1215	1178	
3 1134	1193	1200	
3 1207	1227	1193	
3 1235	1201	1245	
3 1185	1203	1202	
3 1183	1203	1185	
3 1283	298	1263	
3 1285	1201	1235	
3 1240	1271	1239	
3 1208	1188	1167	
3 1183	1204	1234	
3 1213	1195	18	
3 1231	1228	1230	
3 1199	1170	1217	
3 1214	1226	294	
3 1227	1207	1260	
3 1211	1190	1223	
3 1137	1247	1167	
3 1212	1224	1252	
3 1195	1213	1218	
3 1207	1198	1209	
3 1274	1227	1260	
3 1218	1230	1210	
3 1242	1179	1222	
3 1166	1135	1245	
3 1212	1191	1224	
3 1236	1208	1247	
3 16	1225	17	
3 1210	1230	1228	
3 1215	1206	1178	
3 1229	1214	1219	
3 1220	1170	1144	
3 1219	1214	1196	
3 1217	1216	1215	
3 1254	1229	1216	
3 1221	1238	1239	
3 1217	1170	1237	
3 1213	17	1225	
3 1210	1205	1218	
3 1206	1216	1219	
3 1219	1216	1229	
3 1221	1173	1163	
3 1241	1220	1173	
3 1238	1221	1164	
3 1173	1221	1241	
3 1207	1210	1260	
3 1247	1252	1236	
3 1235	1245	1250	
3 1223	1250	1211	
3 1201	1166	1245	
3 1234	1203	1183	
3 15	1232	16	
3 1231	1225	1232	
3 1229	1226	1214	
3 295	1226	1243	
3 1269	1233	1232	
3 1250	1223	1264	
3 15	1261	1232	
3 1228	1267	1210	
3 1216	1217	1248	
3 296	1243	1253	
3 1213	1225	1230	
3 1231	1230	1225	
3 1232	1225	16	
3 15	14	1261	
3 1232	1261	1269	
3 1270	1261	14	
3 1314	1289	1301	
3 1301	1320	1314	
3 1167	1247	1208	
3 1251	1246	1234	
3 1227	1274	1279	
3 1234	1208	1251	
3 1246	1280	1203	
3 1239	1238	1240	
3 1220	1241	1237	
3 1257	1253	1243	
3 1202	1203	1280	
3 1202	1240	1238	
3 1234	1246	1203	
3 1294	1286	1288	
3 1259	1236	1252	
3 300	1300	1311	
3 1221	1239	1241	
3 1241	1239	1262	
3 1242	1264	1223	
3 1223	1171	1242	
3 1254	1216	1248	
3 1249	1257	1243	
3 1227	1222	1244	
3 1222	1200	1244	
3 1135	1211	1245	
3 1250	1245	1211	
3 1250	1258	1235	
3 1281	1256	1273	
3 1137	1212	1247	
3 1252	1247	1212	
3 1202	1280	1240	
3 1263	1253	1272	
3 1254	1265	1249	
3 297	296	1253	
3 1255	1264	1242	
3 1255	1242	1222	
3 1208	1236	1251	
3 1256	1251	1236	
3 1201	1285	1224	
3 1252	1266	1259	
3 1254	1249	1229	
3 1257	1272	1253	
3 1262	1271	1248	
3 1277	1288	1272	
3 1260	1268	1274	
3 1251	1256	1246	
3 1236	1259	1256	
3 1271	1310	1248	
3 1265	1277	1257	
3 298	297	1263	
3 1222	1279	1255	
3 1259	1273	1256	
3 1252	1224	1266	
3 1259	1266	1273	
3 1233	1267	1228	
3 1210	1267	1260	
3 13	1270	14	
3 12	1289	13	
3 1271	1262	1239	
3 1248	1237	1262	
3 1249	1265	1257	
3 1272	1286	1263	
3 1284	1264	1255	
3 1258	1250	1264	
3 1254	1248	1310	
3 1257	1277	1272	
3 1266	1224	1285	
3 1287	1266	1285	
3 1268	1267	1233	
3 1260	1267	1268	
3 9	1330	1318	
3 1268	1275	1299	
3 13	1289	1270	
3 1233	1269	1275	
3 1301	12	11	
3 1275	1269	1298	
3 1281	1280	1246	
3 300	1311	301	
3 1265	1254	1276	
3 299	1283	1300	
3 1290	1255	1279	
3 1271	1240	1282	
3 1278	1274	1268	
3 1279	1222	1227	
3 1321	1322	1320	
3 1258	1264	1284	
3 1282	1240	1280	
3 1297	1294	1296	
3 1265	1276	1277	
3 1263	1286	1283	
3 1275	1298	1305	
3 1287	1258	1292	
3 1274	1278	1279	
3 1290	1279	1278	
3 1281	1246	1256	
3 1280	1281	1282	
3 1273	1287	1302	
3 1306	1315	1282	
3 1302	1316	1273	
3 1288	1293	1296	
3 1276	1293	1277	
3 1283	1286	1291	
3 1284	1255	1290	
3 1287	1273	1266	
3 1235	1258	1285	
3 1285	1258	1287	
3 1288	1286	1272	
3 300	299	1300	
3 1284	1292	1258	
3 1284	1290	1303	
3 1288	1277	1293	
3 1309	1304	1308	
3 11	10	1312	
3 1270	1289	1298	
3 1290	1278	1307	
3 1287	1292	1302	
3 1276	1254	1310	
3 302	301	1317	
3 1278	1299	1307	
3 1310	1271	1315	
3 1288	1296	1294	
3 1286	1294	1291	
3 1293	1276	1295	
3 303	302	1329	
3 1273	1316	1281	
3 1335	304	303	
3 1293	1295	1296	
3 1297	1296	1295	
3 1306	1282	1281	
3 1342	1340	1341	
3 1289	12	1301	
3 1301	11	1312	
3 1299	1275	1305	
3 1292	1313	1302	
3 1283	1291	1300	
3 1291	1309	1311	
3 10	9	1318	
3 1314	1298	1289	
3 1292	1284	1303	
3 1315	1323	1295	
3 1290	1307	1303	
3 1292	1303	1313	
3 1304	1297	1308	
3 1291	1304	1309	
3 1325	1322	1321	
3 1324	1319	1307	
3 1303	1307	1319	
3 1316	1327	1332	
3 1319	1313	1303	
3 1316	1306	1281	
3 1295	1323	1331	
3 305	1346	1359	
3 1317	1309	1328	
3 1311	1317	301	
3 1271	1282	1315	
3 1295	1276	1310	
3 1291	1311	1300	
3 1311	1309	1317	
3 9	8	1330	
3 1314	1305	1298	
3 1299	1324	1307	
3 1297	1295	1331	
3 1312	1320	1301	
3 1312	1318	1321	
3 1323	1315	1306	
3 1295	1310	1315	
3 1313	1327	1302	
3 1302	1327	1316	
3 1328	1309	1308	
3 302	1317	1329	
3 1336	1330	8	
3 1325	1330	1336	
3 1333	1305	1322	
3 1322	1305	1314	
3 1320	1312	1321	
3 1314	1320	1322	
3 1336	7	1343	
3 1355	1362	1343	
3 1318	1325	1321	
3 1319	1324	1326	
3 1313	1319	1326	
3 1331	1353	1308	
3 1325	1354	1357	
3 1306	1316	1332	
3 1376	1372	1351	
3 1351	1350	1337	
3 1299	1333	1324	
3 1327	1338	1332	
3 1326	1334	1313	
3 1334	1338	1327	
3 1308	1297	1331	
3 1359	1360	306	
3 1317	1328	1329	
3 1328	1340	1329	
3 1336	8	7	
3 1325	1318	1330	
3 1326	1339	1334	
3 307	1360	1361	
3 1327	1313	1334	
3 1323	1306	1332	
3 1336	1343	1354	
3 1324	1333	1337	
3 1339	1326	1337	
3 1338	1344	1332	
3 1335	1329	1340	
3 1335	1342	1346	
3 6	1343	7	
3 6	5	1355	
3 1322	1357	1333	
3 1323	1332	1344	
3 1345	1334	1339	
3 1331	1323	1347	
3 1349	1348	1345	
3 1348	1344	1338	
3 1328	1341	1340	
3 1335	1340	1342	
3 1344	1347	1323	
3 1364	1361	1356	
3 1364	1342	1341	
3 1359	1346	1342	
3 1354	1343	1362	
3 1325	1336	1354	
3 1345	1338	1334	
3 1338	1345	1348	
3 1337	1350	1339	
3 1341	1328	1353	
3 1342	1356	1359	
3 305	304	1346	
3 1348	1347	1344	
3 1353	1358	1370	
3 1345	1339	1349	
3 1369	1348	1349	
3 1350	1349	1339	
3 1349	1352	1369	
3 1357	1337	1333	
3 1357	1351	1337	
3 1362	1355	1366	
3 1388	1352	1372	
3 1365	1354	1362	
3 1348	1373	1347	
3 1347	1358	1331	
3 1353	1331	1358	
3 1343	6	1355	
3 1355	5	1363	
3 4	1363	5	
3 3	1371	4	
3 1353	1370	1341	
3 1361	308	307	
3 1325	1357	1322	
3 1376	1354	1365	
3 1373	1348	1369	
3 1370	1378	1364	
3 1360	1359	1356	
3 306	305	1359	
3 1360	1356	1361	
3 307	306	1360	
3 1342	1364	1356	
3 310	1403	1402	
3 1355	1363	1366	
3 1363	1368	1366	
3 1375	1371	3	
3 1375	1368	1371	
3 1373	1374	1358	
3 1374	1378	1370	
3 1391	1388	1372	
3 1379	1369	1392	
3 4	1371	1363	
3 1365	1362	1366	
3 1385	1390	1375	
3 1365	1366	1368	
3 1372	1376	1381	
3 1351	1372	1352	
3 1374	1370	1358	
3 1358	1347	1373	
3 1364	1341	1370	
3 1375	3	2	
3 1368	1363	1371	
3 1397	1381	1365	
3 1369	1352	1388	
3 1414	1377	1408	
3 1426	1416	1424	
3 1373	1369	1379	
3 1379	1374	1373	
3 1	1385	2	
3 1390	1395	1396	
3 1354	1376	1357	
3 1381	1376	1365	
3 1384	1374	1379	
3 1383	1364	1378	
3 1386	309	308	
3 1388	1392	1369	
3 1382	1406	1405	
3 1397	1365	1368	
3 1385	1375	2	
3 1417	1399	1413	
3 1374	1384	1378	
3 309	1386	1398	
3 1383	1384	1387	
3 1387	1384	1379	
3 1383	1378	1384	
3 1394	0	1393	
3 1375	1390	1368	
3 1402	311	310	
3 309	1398	310	
3 1388	1391	1392	
3 1382	1410	1409	
3 1391	1372	1381	
3 1379	1392	1412	
3 1385	1394	1395	
3 1395	1394	1393	
3 1390	1396	1413	
3 1397	1399	1381	
3 1391	1399	1417	
3 1422	1391	1417	
3 1387	1379	1412	
3 0	1394	1	
3 1	1394	1385	
3 1395	1393	1389	
3 1396	1395	1389	
3 1385	1395	1390	
3 1389	1380	1396	
3 1391	1381	1399	
3 1368	1390	1397	
3 1390	1413	1397	
3 1400	1398	1386	
3 1403	1400	1404	
3 1399	1397	1413	
3 1429	1413	1428	
3 1383	1418	1386	
3 1419	1418	1383	
3 1400	1403	1398	
3 1404	1401	1403	
3 1403	310	1398	
3 1401	1402	1403	
3 1405	1404	1400	
3 1406	1401	1404	
3 1407	1400	1418	
3 1405	1400	1407	
3 1419	1387	1423	
3 1405	1406	1404	
3 1410	1382	1405	
3 1405	1407	1410	
3 1408	1409	1411	
3 1409	1410	1411	
3 1410	1407	1411	
3 1419	1407	1418	
3 1408	1411	1414	
3 1392	1391	1422	
3 1426	314	1421	
3 1396	1380	1413	
3 1428	1367	1429	
3 1414	1411	1419	
3 1419	1423	1414	
3 1413	1429	1417	
3 1415	1420	1425	
3 1421	1416	1426	
3 1422	1412	1392	
3 1386	1418	1400	
3 1419	1383	1387	
3 1387	1412	1423	
3 1411	1407	1419	
3 1425	1420	314	
3 1417	1429	1431	
3 314	315	1421	
3 1431	1433	1422	
3 1412	1422	1423	
3 1422	1433	1427	
3 1431	1425	1433	
3 1416	313	1424	
3 1415	1430	312	
3 1427	1424	1377	
3 1427	1423	1422	
3 1377	1414	1427	
3 1423	1427	1414	
3 1429	1432	1431	
3 1413	1380	1428	
3 1417	1431	1422	
3 1429	1367	1432	
3 1425	1431	1432	
3 1425	314	1433	
3 1367	1430	1432	
3 1425	1432	1430	
3 314	1426	1433	
3 1427	1433	1426	
CELL_TYPES 2533
5
5
5
5
5
5
5
5
5
5
5
5
5
5
5
5
5
5
5
5
5
5
5
5
5
5
5
5
5
5
5
5
5
5
5
5
5
5
5
5
5
5
5
5
5
5
5
5
5
5
5
5
5
5
5
5
5
5
5
5
5
5
5
5
5
5
5
5
5
5
5
5
5
5
5
5
5
5
5
5
5
5
5
5
5
5
5
5
5
5
5
5
5
5
5
5
5
5
5
5
5
5
5
5
5
5
5
5
5
5
5
5
5
5
5
5
5
5
5
5
5
5
5
5
5
5
5
5
5
5
5
5
5
5
5
5
5
5
5
5
5
5
5
5
5
5
5
5
5
5
5
5
5
5
5
5
5
5
5
5
5
5
5
5
5
5
5
5
5
5
5
5
5
5
5
5
5
5
5
5
5
5
5
5
5
5
5
5
5
5
5
5
5
5
5
5
5
5
5
5
5
5
5
5
5
5
5
5
5
5
5
5
5
5
5
5
5
5
5
5
5
5
5
5
5
5
5
5
5
5
5
5
5
5
5
5
5
5
5
5
5
5
5
5
5
5
5
5
5
5
5
5
5
5
5
5
5
5
5
5
5
5
5
5
5
5
5
5
5
5
5
5
5
5
5
5
5
5
5
5
5
5
5
5
5
5
5
5
5
5
5
5
5
5
5
5
5
5
5
5
5
5
5
5
5
5
5
5
5
5
5
5
5
5
5
5
5
5
5
5
5
5
5
5
5
5
5
5
5
5
5
5
5
5
5
5
5
5
5
5
5
5
5
5
5
5
5
5
5
5
5
5
5
5
5
5
5
5
5
5
5
5
5
5
5
5
5
5
5
5
5
5
5
5
5
5
5
5
5
5
5
5
5
5
5
5
5
5
5
5
5
5
5
5
5
5
5
5
5
5
5
5
5
5
5
5
5
5
5
5
5
5
5
5
5
5
5
5
5
5
5
5
5
5
5
5
5
5
5
5
5
5
5
5
5
5
5
5
5
5
5
5
5
5
5
5
5
5
5
5
5
5
5
5
5
5
5
5
5
5
5
5
5
5
5
5
5
5
5
5
5
5
5
5
5
5
5
5
5
5
5
5
5
5
5
5
5
5
5
5
5
5
5
5
5
5
5
5
5
5
5
5
5
5
5
5
5
5
5
5
5
5
5
5
5
5
5
5
5
5
5
5
5
5
5
5
5
5
5
5
5
5
5
5
5
5
5
5
5
5
5
5
5
5
5
5
5
5
5
5
5
5
5
5
5
5
5
5
5
5
5
5
5
5
5
5
5
5
5
5
5
5
5
5
5
5
5
5
5
5
5
5
5
5
5
5
5
5
5
5
5
5
5
5
5
5
5
5
5
5
5
5
5
5
5
5
5
5
5
5
5
5
5
5
5
5
5
5
5
5
5
5
5
5
5
5
5
5
5
5
5
5
5
5
5
5
5
5
5
5
5
5
5
5
5
5
5
5
5
5
5
5
5
5
5
5
5
5
5
5
5
5
5
5
5
5
5
5
5
5
5
5
5
5
5
5
5
5
5
5
5
5
5
5
5
5
5
5
5
5
5
5
5
5
5
5
5
5
5
5
5
5
5
5
5
5
5
5
5
5
5
5
5
5
5
5
5
5
5
5
5
5
5
5
5
5
5
5
5
5
5
5
5
5
5
5
5
5
5
5
5
5
5
5
5
5
5
5
5
5
5
5
5
5
5
5
5
5
5
5
5
5
5
5
5
5
5
5
5
5
5
5
5
5
5
5
5
5
5
5
5
5
5
5
5
5
5
5
5
5
5
5
5
5
5
5
5
5
5
5
5
5
5
5
5
5
5
5
5
5
5
5
5
5
5
5
5
5
5
5
5
5
5
5
5
5
5
5
5
5
5
5
5
5
5
5
5
5
5
5
5
5
5
5
5
5
5
5
5
5
5
5
5
5
5
5
5
5
5
5
5
5
5
5
5
5
5
5
5
5
5
5
5
5
5
5
5
5
5
5
5
5
5
5
5
5
5
5
5
5
5
5
5
5
5
5
5
5
5
5
5
5
5
5
5
5
5
5
5
5
5
5
5
5
5
5
5
5
5
5
5
5
5
5
5
5
5
5
5
5
5
5
5
5
5
5
5
5
5
5
5
5
5
5
5
5
5
5
5
5
5
5
5
5
5
5
5
5
5
5
5
5
5
5
5
5
5
5
5
5
5
5
5
5
5
5
5
5
5
5
5
5
5
5
5
5
5
5
5
5
5
5
5
5
5
5
5
5
5
5
5
5
5
5
5
5
5
5
5
5
5
5
5
5
5
5
5
5
5
5
5
5
5
5
5
5
5
5
5
5
5
5
5
5
5
5
5
5
5
5
5
5
5
5
5
5
5
5
5
5
5
5
5
5
5
5
5
5
5
5
5
5
5
5
5
5
5
5
5
5
5
5
5
5
5
5
5
5
5
5
5
5
5
5
5
5
5
5
5
5
5
5
5
5
5
5
5
5
5
5
5
5
5
5
5
5
5
5
5
5
5
5
5
5
5
5
5
5
5
5
5
5
5
5
5
5
5
5
5
5
5
5
5
5
5
5
5
5
5
5
5
5
5
5
5
5
5
5
5
5
5
5
5
5
5
5
5
5
5
5
5
5
5
5
5
5
5
5
5
5
5
5
5
5
5
5
5
5
5
5
5
5
5
5
5
5
5
5
5
5
5
5
5
5
5
5
5
5
5
5
5
5
5
5
5
5
5
5
5
5
5
5
5
5
5
5
5
5
5
5
5
5
5
5
5
5
5
5
5
5
5
5
5
5
5
5
5
5
5
5
5
5
5
5
5
5
5
5
5
5
5
5
5
5
5
5
5
5
5
5
5
5
5
5
5
5
5
5
5
5
5
5
5
5
5
5
5
5
5
5
5
5
5
5
5
5
5
5
5
5
5
5
5
5
5
5
5
5
5
5
5
5
5
5
5
5
5
5
5
5
5
5
5
5
5
5
5
5
5
5
5
5
5
5
5
5
5
5
5
5
5
5
5
5
5
5
5
5
5
5
5
5
5
5
5
5
5
5
5
5
5
5
5
5
5
5
5
5
5
5
5
5
5
5
5
5
5
5
5
5
5
5
5
5
5
5
5
5
5
5
5
5
5
5
5
5
5
5
5
5
5
5
5
5
5
5
5
5
5
5
5
5
5
5
5
5
5
5
5
5
5
5
5
5
5
5
5
5
5
5
5
5
5
5
5
5
5
5
5
5
5
5
5
5
5
5
5
5
5
5
5
5
5
5
5
5
5
5
5
5
5
5
5
5
5
5
5
5
5
5
5
5
5
5
5
5
5
5
5
5
5
5
5
5
5
5
5
5
5
5
5
5
5
5
5
5
5
5
5
5
5
5
5
5
5
5
5
5
5
5
5
5
5
5
5
5
5
5
5
5
5
5
5
5
5
5
5
5
5
5
5
5
5
5
5
5
5
5
5
5
5
5
5
5
5
5
5
5
5
5
5
5
5
5
5
5
5
5
5
5
5
5
5
5
5
5
5
5
5
5
5
5
5
5
5
5
5
5
5
5
5
5
5
5
5
5
5
5
5
5
5
5
5
5
5
5
5
5
5
5
5
5
5
5
5
5
5
5
5
5
5
5
5
5
5
5
5
5
5
5
5
5
5
5
5
5
5
5
5
5
5
5
5
5
5
5
5
5
5
5
5
5
5
5
5
5
5
5
5
5
5
5
5
5
5
5
5
5
5
5
5
5
5
5
5
5
5
5
5
5
5
5
5
5
5
5
5
5
5
5
5
5
5
5
5
5
5
5
5
5
5
5
5
5
5
5
5
5
5
5
5
5
5
5
5
5
5
5
5
5
5
5
5
5
5
5
5
5
5
5
5
5
5
5
5
5
5
5
5
5
5
5
5
5
5
5
5
5
5
5
5
5
5
5
5
5
5
5
5
5
5
5
5
5
5
5
5
5
5
5
5
5
5
5
5
5
5
5
5
5
5
5
5
5
5
5
5
5
5
5
5
5
5
5
5
5
5
5
5
5
5
5
5
5
5
5
5
5
5
5
5
5
5
5
5
5
5
5
5
5
5
5
5
5
5
5
5
5
5
5
5
5
5
5
5
5
5
5
5
5
5
5
5
5
5
5
5
5
5
5
5
5
5
5
5
5
5
5
5
5
5
5
5
5
5
5
5
5
5
5
5
5
5
5
5
5
5
5
5
5
5
5
5
5
5
5
5
5
5
5
5
5
5
5
5
5
5
5
5
5
5
5
5
5
5
5
5
5
5
5
5
5
5
5
5
5
5
5
5
5
5
5
5
5
5
5
5
5
5
5
5
5
5
5
5
5
5
5
5
5
5
5
5
5
5
5
5
5
5
5
5
5
5
5
5
5
5
5
5
5
5
5
5
5
5
5
5
5
5
5
5
5
5
5
5
5
5
5
5
5
5
5
5
5
5
5
5
5
5
5
5
5
5
5
5
5
5
5
5
5
5
5
5
5
5
5
5
5
5
5
5
5
5
5
5
5
5
5
5
5
5
5
5
5
5
5
5
5
5
5
5
5
5
5
5
5
5
5
5
5
5
5
5
5
5
5
5
5
5
5
5
5
5
5
5
5
5
5
5
5
5
5
5
5
5
5
5
5
5
5
5
5
5
5
5
5
5
5
5
5
5
5
5
5
5
5
5
5
5
5
5
5
5
5
5
5
5
5
5
5
5
5
5
5
5
5
5
5
5
5
5
5
5
5
5
5
5
5
5
5
5
5
5
5
5
5
5
5
5
5
5
5
5
5
5
5
5
5
5
5
5
5
5
5
5
5
5
5
5
5
5
5
5
5
5
5
5
5
5
5
5
5
5
5
5
5
5
5
5
5
5
5
5
5
5
5
5
5
5
5
5
5
5
5
5
5
5
5
5
5
5
5
5
5
5
5
5
5
5
5
5
5
5
5
5
5
5
5
5
5
5
5
5
5
5
5
5
5
5
5
5
5
5
5
5
5
5
5
5
5
5
5
5
5
5
5
5
5
5
5
5
5
5
5
5
5
5
5
5
5
5
5
5
5
5
5
5
5
5
5
5
5
5
5
5
5
5
5
5
5
5
5
5
5
5
5
5
5
5
5
5
5
5
5
5
5
5
5
5
5
5
5
5
5
5
5
5
5
5
5
5
5
5
5
5
5
5
5
5
5
5
5
5
5
5
5
5
5
5
5
5
5
5
5
5
5
5
5
5
5
5
5
5
5
5
5
5
5
5
5
5
5
5
5
5
5
5
5
5
5
5
5
5
5
5
5
5
5
5
5
5
5
5
5
5
5
5
5
5
5
5
5
5
5
5
5
5
5
5
5
5
5
5
5
5
5
5
5
5
5
5
5
5
5
5
5
5
5
5
5
5
5
5
5
5
5
5
5
5
5
5
5
5
5
5
5
5
5
5
5
5
5
5
5
5
5
5
5
5
5
5
5
5
5
5
5
5
5
5
5
5
5
5
5
5
5
5
5
5
5
5
5
5
5
5
5
5
5
5
5
5
5
5
5
5
5
5
5
5
5
5
5
5
5
5
5
5
5
5
5
5
5
5
5
5
5
5
5
5
5
5
5
5
5
5
5
5
5
5
5
5
5
5
5
5
5
5
5
5
5
5
5
5
5
5
5
5
5
5
5
5
5
5
5
5
5
5
5
5
5
5
5
5
5
5
5
5
5
5
5
5
5
5
5
5
5
5
5
5
5
5
5
5
CELL_DATA 2533
SCALARS sample_scalars double 2
LOOKUP_TABLE default
234.748	0	
234.748	0	
104.896	0	
234.748	0	
234.748	0	
139.404	0	
184.136	0	
234.748	0	
227.853	0	
233.677	0	
234.748	0	
209.915	0	
234.748	0	
234.308	0	
251.552	0	
186.877	0	
187.578	0	
146.523	0	
184.639	0	
271.61	0	
208.874	0	
177.978	0	
582.731	0	
186.208	0	
207.544	0	
288.859	0	
184.868	0	
197.976	0	
190.944	0	
211.558	0	
207.808	0	
164.929	0	
366.654	0	
194.418	0	
199.701	0	
202.336	0	
193.825	0	
163.104	0	
192.152	0	
172.15	0	
185.879	0	
199.452	0	
203.125	0	
218.83	0	
188.669	0	
76.0399	0	
183.225	0	
73.2208	0	
75.9291	0	
197.274	0	
84.7918	0	
198.323	0	
170.699	0	
194.403	0	
184.951	0	
84.6059	0	
172.467	0	
188.1	0	
161.542	0	
186.726	0	
92.2695	0	
184.976	0	
198.345	0	
175.323	0	
207.427	0	
189.177	0	
196.565	0	
215.682	0	
183.266	0	
209.328	0	
157.311	0	
204.181	0	
73.7701	0	
182.741	0	
186.2	0	
193.249	0	
212.039	0	
182.094	0	
208.619	0	
185.533	0	
198.808	0	
229.086	0	
215.071	0	
194.592	0	
219.277	0	
203.817	0	
199.458	0	
217.745	0	
187.059	0	
201.703	0	
186.382	0	
232.478	0	
174.54	0	
202.16	0	
201.021	0	
232.618	0	
235.756	0	
201.035	0	
213.819	0	
204.745	0	
198.541	0	
217.557	0	
201.04	0	
201.092	0	
189.333	0	
200.101	0	
206.543	0	
201.697	0	
196.07	0	
212.05	0	
197.539	0	
197.681	0	
201.019	0	
214.257	0	
187.407	0	
203.228	0	
190.5	0	
176.541	0	
186.871	0	
199.367	0	
201.239	0	
201.386	0	
191.875	0	
200.087	0	
185.886	0	
171.958	0	
184.358	0	
218.141	0	
180.056	0	
183.852	0	
179.699	0	
173.456	0	
171.319	0	
174.323	0	
185.562	0	
181.761	0	
184.104	0	
181.665	0	
213.446	0	
172.728	0	
226.607	0	
170.855	0	
180.546	0	
207.107	0	
177.643	0	
209.855	0	
174.046	0	
177.59	0	
169.141	0	
174.62	0	
209.273	0	
207.223	0	
178.491	0	
221.298	0	
220.937	0	
179.568	0	
220.021	0	
173.375	0	
171.491	0	
198.343	0	
187.692	0	
170.703	0	
200.964	0	
170.194	0	
171.626	0	
193.441	0	
173.721	0	
190.943	0	
172.473	0	
193.252	0	
188.741	0	
169.573	0	
191.022	0	
173.937	0	
172.309	0	
184.471	0	
184.359	0	
189.751	0	
181.89	0	
173.377	0	
181.722	0	
178.675	0	
175.838	0	
161.059	0	
178.907	0	
189.545	0	
176.835	0	
190.015	0	
170.441	0	
184.453	0	
201.894	0	
179.819	0	
204.549	0	
187.954	0	
181.084	0	
202.843	0	
183.468	0	
207.751	0	
168.08	0	
184.76	0	
197.608	0	
185.97	0	
187.296	0	
197.219	0	
184.343	0	
199.499	0	
183.891	0	
195.865	0	
202.625	0	
185.081	0	
193.196	0	
217.817	0	
185.334	0	
189.21	0	
185.457	0	
205.596	0	
207.505	0	
186.84	0	
202.533	0	
183.492	0	
182.936	0	
187.871	0	
184.824	0	
202.463	0	
184.426	0	
244.892	0	
184.059	0	
196.332	0	
179.433	0	
150.643	0	
184.282	0	
180.381	0	
192.845	0	
178.268	0	
185.689	0	
193.349	0	
184.771	0	
183.608	0	
180.147	0	
184.799	0	
182.898	0	
179.129	0	
193.776	0	
179.584	0	
185.398	0	
186.562	0	
186.241	0	
190.408	0	
185.162	0	
187.482	0	
185.692	0	
193.58	0	
191.551	0	
180.434	0	
201.196	0	
184.47	0	
191.616	0	
187.773	0	
189.489	0	
178.128	0	
203.521	0	
189.76	0	
179.498	0	
187.41	0	
198.506	0	
179.398	0	
188.641	0	
187.851	0	
187.636	0	
197.408	0	
183.904	0	
188.197	0	
194.082	0	
182.728	0	
196.018	0	
183.432	0	
177.914	0	
204.669	0	
173.342	0	
202.444	0	
188.463	0	
201.615	0	
208.133	0	
185.657	0	
203.93	0	
176.115	0	
188.696	0	
209.613	0	
201.001	0	
216.888	0	
195.232	0	
198.231	0	
204.009	0	
211.754	0	
217.286	0	
205.236	0	
219.068	0	
204.307	0	
202.099	0	
213.299	0	
196.11	0	
209.123	0	
200.582	0	
216.161	0	
196.149	0	
183.659	0	
200.83	0	
184.983	0	
182.16	0	
194.959	0	
234.748	0	
211.36	0	
201.733	0	
188.488	0	
217.911	0	
180.23	0	
188.56	0	
214.221	0	
211.918	0	
183.795	0	
208.058	0	
179.068	0	
182.012	0	
224.193	0	
190.212	0	
205.476	0	
170.293	0	
211.792	0	
210.895	0	
168.182	0	
220.901	0	
184.58	0	
166.648	0	
215.127	0	
200.897	0	
210.579	0	
213.786	0	
164.913	0	
206.845	0	
173.366	0	
169.921	0	
218.234	0	
181.242	0	
221.763	0	
177.486	0	
219.055	0	
187.947	0	
204.66	0	
218.93	0	
178.051	0	
233.723	0	
210.979	0	
184.31	0	
219.106	0	
203.348	0	
217.304	0	
212.132	0	
221.144	0	
183.778	0	
233.596	0	
219.993	0	
190.224	0	
206.789	0	
202.204	0	
187.281	0	
211.608	0	
180.721	0	
208.075	0	
208.484	0	
202.596	0	
218.742	0	
207.576	0	
235.585	0	
175.125	0	
220.587	0	
202.535	0	
202.703	0	
207.902	0	
211.099	0	
199.845	0	
229.304	0	
205.803	0	
229.658	0	
208.72	0	
200.847	0	
189.324	0	
228.499	0	
206.651	0	
200.737	0	
224.21	0	
200.464	0	
206.253	0	
186.219	0	
199.942	0	
213.775	0	
201.912	0	
200.769	0	
207.875	0	
204.256	0	
203.043	0	
198.303	0	
200.556	0	
206.34	0	
209.64	0	
210.623	0	
200.898	0	
198.81	0	
202.432	0	
206.131	0	
212.579	0	
206.01	0	
200.018	0	
203.862	0	
192.508	0	
197.604	0	
213.747	0	
195.66	0	
210.718	0	
204.952	0	
177.873	0	
210.694	0	
187.245	0	
227.217	0	
194.776	0	
188.966	0	
204.953	0	
185.673	0	
215.593	0	
175.631	0	
228.158	0	
215.098	0	
201.344	0	
213.79	0	
188.445	0	
176.71	0	
220.928	0	
173.034	0	
202.708	0	
210.897	0	
172.307	0	
212.207	0	
176.901	0	
217.44	0	
214.863	0	
174.547	0	
202.73	0	
169.776	0	
201.488	0	
203.045	0	
190.788	0	
209.643	0	
173.302	0	
179.048	0	
196.17	0	
173.259	0	
184.82	0	
193.22	0	
178.438	0	
205.668	0	
172.968	0	
210.052	0	
177.363	0	
209.369	0	
179.029	0	
234.748	0	
189.936	0	
234.748	0	
195.936	0	
179.738	0	
194.63	0	
183.282	0	
196.694	0	
181.283	0	
183.856	0	
184.88	0	
191.066	0	
208.853	0	
187.066	0	
170.189	0	
199.097	0	
185.955	0	
205.583	0	
193.11	0	
179.216	0	
195.93	0	
200.667	0	
226.959	0	
174.928	0	
190.266	0	
201.627	0	
184.044	0	
198.35	0	
215.862	0	
193.23	0	
210.598	0	
185.329	0	
191.969	0	
184.806	0	
193.83	0	
212.164	0	
181.981	0	
189.375	0	
175.09	0	
194.699	0	
191.645	0	
192.739	0	
197	0	
199.918	0	
199.024	0	
200.938	0	
199.443	0	
213.634	0	
188.099	0	
204.389	0	
200.646	0	
201.859	0	
206.327	0	
197.543	0	
201.863	0	
213.604	0	
199.449	0	
195.87	0	
199.434	0	
194.956	0	
208.148	0	
239.1	0	
197.546	0	
204.113	0	
204.427	0	
196.109	0	
175.883	0	
196.835	0	
164.881	0	
196.595	0	
198.781	0	
180.832	0	
186.21	0	
189.499	0	
208.175	0	
187.124	0	
202.756	0	
208.853	0	
196.18	0	
187.081	0	
183.409	0	
198.473	0	
201.07	0	
198.395	0	
210.067	0	
191.799	0	
217.159	0	
180.78	0	
185.204	0	
204.669	0	
197.5	0	
215.38	0	
222.272	0	
189.811	0	
218.826	0	
191.422	0	
201.434	0	
194.999	0	
201.995	0	
232.969	0	
202.762	0	
240.435	0	
241.972	0	
211.493	0	
242.365	0	
210.22	0	
190.535	0	
221.362	0	
197.198	0	
246.104	0	
250.325	0	
190.111	0	
248.966	0	
188.556	0	
227.564	0	
183.961	0	
232.384	0	
204.269	0	
198.256	0	
241.377	0	
185.735	0	
252.663	0	
229.003	0	
206.902	0	
212.209	0	
191.256	0	
187.015	0	
244.884	0	
185.668	0	
215.634	0	
234.748	0	
192.777	0	
245.489	0	
181.05	0	
216.138	0	
194.398	0	
183.817	0	
226.436	0	
187.301	0	
234.748	0	
234.748	0	
185.244	0	
234.748	0	
182.457	0	
189.967	0	
234.748	0	
211.435	0	
234.748	0	
234.748	0	
185.72	0	
234.748	0	
193.799	0	
234.748	0	
181.256	0	
234.748	0	
194.421	0	
244.994	0	
203.548	0	
197.984	0	
178.197	0	
183.967	0	
188.031	0	
190.937	0	
224.917	0	
189.248	0	
183.362	0	
179.553	0	
182.82	0	
180.337	0	
186.354	0	
178.59	0	
186.509	0	
177.362	0	
184.268	0	
189.151	0	
175.834	0	
181.471	0	
192.513	0	
185.159	0	
190.551	0	
179.082	0	
203.564	0	
194.755	0	
196.561	0	
193.97	0	
200.863	0	
194.721	0	
200.232	0	
194.953	0	
207.003	0	
208.232	0	
207.545	0	
206.028	0	
210.423	0	
212.203	0	
210.325	0	
221.24	0	
212.94	0	
211.741	0	
215.076	0	
227.01	0	
213.772	0	
213.266	0	
207.912	0	
200.484	0	
206.156	0	
203.941	0	
225.38	0	
212.561	0	
209.173	0	
199.599	0	
195.103	0	
215.052	0	
214.924	0	
216.245	0	
212.205	0	
212.79	0	
209.02	0	
200.767	0	
209.915	0	
199.941	0	
199.105	0	
209.062	0	
188.904	0	
178.089	0	
194.671	0	
181.717	0	
212.958	0	
213.576	0	
217.325	0	
211.267	0	
202.908	0	
202.719	0	
197.031	0	
201.327	0	
203.906	0	
226.42	0	
202.249	0	
205.36	0	
204.869	0	
252.686	0	
207.175	0	
199.536	0	
201.287	0	
194.414	0	
193.198	0	
186.128	0	
195.747	0	
192.883	0	
168.645	0	
184.795	0	
202.048	0	
194.711	0	
191.674	0	
188.946	0	
183.123	0	
184.309	0	
176.283	0	
171.427	0	
172.489	0	
174.037	0	
167.341	0	
171.983	0	
178.21	0	
179.156	0	
178.094	0	
181.452	0	
180.712	0	
176.013	0	
188.807	0	
170.819	0	
205.506	0	
202.724	0	
199.269	0	
197.523	0	
202.367	0	
195.412	0	
187.114	0	
214.391	0	
182.849	0	
190.564	0	
142.485	0	
199.886	0	
193.27	0	
199.56	0	
203.324	0	
188.783	0	
202.534	0	
199.122	0	
184.213	0	
192.924	0	
181	0	
177.46	0	
167.944	0	
176.533	0	
164.937	0	
177.374	0	
191.505	0	
184.422	0	
191.294	0	
194.131	0	
200.542	0	
201.422	0	
213.813	0	
187.561	0	
191.021	0	
193.224	0	
196.474	0	
204.8	0	
200.452	0	
199.625	0	
184.925	0	
201.578	0	
196.908	0	
192.129	0	
185.643	0	
187.703	0	
188.973	0	
191.374	0	
180.933	0	
189.449	0	
186.307	0	
188.488	0	
177.894	0	
178.186	0	
193.682	0	
196.746	0	
188.243	0	
184.225	0	
177.132	0	
185.756	0	
176.8	0	
179.347	0	
189.198	0	
192.964	0	
192.034	0	
188.734	0	
190.789	0	
197.579	0	
198.263	0	
198.655	0	
214.394	0	
201.719	0	
206.95	0	
203.591	0	
227.017	0	
218.343	0	
218.961	0	
214.395	0	
211.224	0	
210.443	0	
212.565	0	
206.272	0	
194.296	0	
211.355	0	
227.688	0	
217.463	0	
219.077	0	
205.489	0	
213.102	0	
211.359	0	
187.674	0	
204.754	0	
195.537	0	
197.984	0	
170.134	0	
180.3	0	
208.781	0	
212.174	0	
202.32	0	
207.913	0	
204.213	0	
200.327	0	
198.804	0	
207.12	0	
204.599	0	
205.046	0	
194.875	0	
198.314	0	
194.948	0	
201.546	0	
187.49	0	
191.9	0	
186.755	0	
183.008	0	
175.237	0	
193.599	0	
216.941	0	
199.225	0	
174.994	0	
176.974	0	
186.282	0	
188.03	0	
188.279	0	
205.66	0	
180.506	0	
184.006	0	
182.909	0	
233.305	0	
205.318	0	
198.593	0	
208.27	0	
235.532	0	
198.637	0	
191.71	0	
200.762	0	
194.921	0	
193.685	0	
197.976	0	
226.375	0	
209.781	0	
181.473	0	
179.767	0	
192.324	0	
194.775	0	
190.495	0	
195.887	0	
198.884	0	
186.389	0	
197.888	0	
187.996	0	
193.201	0	
189.997	0	
207.65	0	
252.183	0	
209.943	0	
185.446	0	
192.86	0	
199.293	0	
187.126	0	
189.069	0	
173.563	0	
185.173	0	
185.266	0	
190.827	0	
188.28	0	
186.732	0	
185.544	0	
186.048	0	
188.738	0	
192.16	0	
198.527	0	
199.874	0	
193.391	0	
193.207	0	
194.928	0	
197.462	0	
204.417	0	
202.873	0	
222.758	0	
209.306	0	
224.658	0	
233.41	0	
215.03	0	
200.056	0	
239.377	0	
219.394	0	
213.222	0	
213.099	0	
202.425	0	
194.085	0	
201.004	0	
198.971	0	
172.273	0	
194	0	
190.524	0	
191.718	0	
210.043	0	
207.875	0	
199.38	0	
216.354	0	
198.291	0	
199.252	0	
187.926	0	
195.925	0	
198.763	0	
191.95	0	
211.845	0	
204.16	0	
199.554	0	
186.755	0	
180.047	0	
183.299	0	
169.908	0	
186.23	0	
197.456	0	
214.355	0	
216.315	0	
209.286	0	
197.411	0	
201.55	0	
202.147	0	
193.578	0	
191.361	0	
183.88	0	
180.803	0	
192.214	0	
204.634	0	
221.557	0	
204.959	0	
212.604	0	
202.492	0	
206.801	0	
181.593	0	
185.134	0	
189.837	0	
191.18	0	
184.264	0	
189.055	0	
179.763	0	
190.765	0	
205.615	0	
202.032	0	
212.197	0	
212.196	0	
225.541	0	
233.167	0	
194.607	0	
198.721	0	
188.913	0	
190.438	0	
202.909	0	
251.062	0	
194.434	0	
196.76	0	
194.287	0	
193.584	0	
207.659	0	
195.741	0	
198.566	0	
200.274	0	
188.064	0	
220.231	0	
210.019	0	
204.323	0	
193.432	0	
196.507	0	
192.689	0	
230.946	0	
185.382	0	
189.231	0	
205.447	0	
193.144	0	
220.992	0	
228.424	0	
193.956	0	
199.712	0	
193.003	0	
191.393	0	
217.422	0	
212.567	0	
196.298	0	
195.886	0	
117.85	0	
78.0862	0	
200.183	0	
193.872	0	
178.766	0	
181.032	0	
195.464	0	
199.778	0	
194.937	0	
187.921	0	
196.893	0	
193.018	0	
198.815	0	
233.756	0	
192.343	0	
192.894	0	
213.365	0	
230.536	0	
220.389	0	
210.565	0	
217.309	0	
216.447	0	
193.814	0	
201.999	0	
198.436	0	
200.134	0	
199.836	0	
201.855	0	
189.062	0	
188.365	0	
185.36	0	
231.591	0	
176.324	0	
177.266	0	
198.031	0	
200.091	0	
201.092	0	
192.634	0	
193.394	0	
194.84	0	
194.329	0	
202.104	0	
196.747	0	
200.716	0	
189.257	0	
195.608	0	
205.671	0	
191.318	0	
186.527	0	
188.671	0	
189.169	0	
190.166	0	
193.019	0	
196.704	0	
207.975	0	
204.092	0	
207.48	0	
222.164	0	
231.921	0	
221.534	0	
188.493	0	
194.156	0	
193.982	0	
195.595	0	
180.039	0	
182.587	0	
189.067	0	
191.38	0	
205.998	0	
213.078	0	
192.885	0	
175.913	0	
198.313	0	
191.245	0	
194.1	0	
186.339	0	
217.685	0	
215.981	0	
209.213	0	
213.278	0	
139.782	0	
110.031	0	
207.379	0	
201.523	0	
103.062	0	
193.915	0	
234.748	0	
203.215	0	
199.405	0	
224.413	0	
192.937	0	
203.257	0	
197.283	0	
205.674	0	
190.545	0	
209.192	0	
215.064	0	
196.623	0	
220.265	0	
241.466	0	
214.874	0	
224.48	0	
216.801	0	
217.237	0	
213.761	0	
220.689	0	
217.704	0	
218.893	0	
200.504	0	
211.664	0	
202.839	0	
199.032	0	
199.888	0	
211.625	0	
203.877	0	
202.626	0	
217.432	0	
201.928	0	
200.743	0	
193.124	0	
210.502	0	
193.882	0	
235.877	0	
189.032	0	
189.256	0	
215.566	0	
202.707	0	
201.955	0	
206.528	0	
199.727	0	
213.086	0	
205.774	0	
197.782	0	
195.649	0	
200.641	0	
196.601	0	
194.411	0	
196.822	0	
181.605	0	
202.419	0	
205.738	0	
199.754	0	
213.677	0	
200.597	0	
215.069	0	
232.852	0	
191.039	0	
190.97	0	
192.697	0	
191.631	0	
207.397	0	
194.239	0	
189.659	0	
196.113	0	
212.292	0	
213.543	0	
225.218	0	
217.604	0	
235.981	0	
230.24	0	
198.878	0	
202.18	0	
198.112	0	
204.94	0	
192.315	0	
200.468	0	
196.052	0	
199.862	0	
204.644	0	
200.866	0	
203.693	0	
190.254	0	
200.569	0	
184.742	0	
195.636	0	
191.212	0	
214.515	0	
217.931	0	
185.193	0	
251.927	0	
163.328	0	
174.014	0	
193.855	0	
225.566	0	
212.958	0	
217.333	0	
214.593	0	
207.598	0	
208.414	0	
231.389	0	
223.753	0	
244.161	0	
200.057	0	
197.966	0	
217.422	0	
225.357	0	
218.585	0	
229.397	0	
216.213	0	
219.787	0	
205.208	0	
252.017	0	
205.857	0	
203.325	0	
189.574	0	
243.3	0	
221.715	0	
206.566	0	
209.379	0	
231.151	0	
217.313	0	
212.479	0	
223.64	0	
207.679	0	
245.613	0	
289.103	0	
197.274	0	
206.672	0	
227.228	0	
209.78	0	
259.929	0	
201.951	0	
227.938	0	
219.031	0	
238.524	0	
214.693	0	
253.892	0	
316.731	0	
198.721	0	
192.05	0	
192.4	0	
192.542	0	
230.528	0	
240.311	0	
218.691	0	
187.846	0	
240.363	0	
233.8	0	
235.327	0	
236.953	0	
217.816	0	
245.767	0	
216.946	0	
233.436	0	
202.808	0	
201.5	0	
152.823	0	
221.058	0	
127.317	0	
99.186	0	
191.345	0	
230.546	0	
120.936	0	
273.647	0	
229.476	0	
231.585	0	
203.844	0	
205.14	0	
191.276	0	
196.572	0	
227.79	0	
228.139	0	
206.072	0	
209.157	0	
242.491	0	
267.545	0	
268.069	0	
251.467	0	
255.557	0	
198.26	0	
213.335	0	
222.362	0	
248.109	0	
233.795	0	
256.685	0	
187.426	0	
219.675	0	
243.813	0	
215.776	0	
208.044	0	
190.835	0	
203.582	0	
248.987	0	
264.968	0	
222.371	0	
230.135	0	
268.024	0	
248.859	0	
282.443	0	
199.918	0	
229.933	0	
261.711	0	
212.599	0	
204.479	0	
193.048	0	
195.368	0	
181.708	0	
195.509	0	
212.618	0	
216.331	0	
237.36	0	
236.022	0	
231.475	0	
237.313	0	
225.773	0	
215.405	0	
244.003	0	
231.656	0	
234.405	0	
264.706	0	
202.713	0	
205.556	0	
230.908	0	
243.557	0	
277.95	0	
282.358	0	
217.288	0	
230.537	0	
117.634	0	
209.51	0	
249.287	0	
214.326	0	
192.616	0	
212.742	0	
260.352	0	
203.727	0	
323.886	0	
339.905	0	
200.325	0	
219.043	0	
226.045	0	
174.104	0	
185.644	0	
207.835	0	
215.065	0	
239.257	0	
260.177	0	
310.896	0	
179.501	0	
202.488	0	
213.951	0	
239.191	0	
180.839	0	
266.669	0	
185.265	0	
285.357	0	
225.38	0	
214.127	0	
85.6807	0	
104.003	0	
183.631	0	
233.055	0	
223.135	0	
332.333	0	
253.169	0	
268.845	0	
273.51	0	
294.636	0	
219.647	0	
231.716	0	
289.466	0	
203.771	0	
200.383	0	
200.268	0	
236.87	0	
237.021	0	
230.147	0	
201.001	0	
202.851	0	
248.016	0	
79.0919	0	
76.3206	0	
316.115	0	
308.612	0	
239.825	0	
215.425	0	
331.222	0	
311.49	0	
262.472	0	
210.81	0	
239.471	0	
235.627	0	
184.463	0	
191.481	0	
115.246	0	
110.218	0	
233.983	0	
240.877	0	
206.402	0	
253.141	0	
210.762	0	
227.65	0	
381.269	0	
298.026	0	
202.686	0	
280.96	0	
206.663	0	
210.601	0	
205.868	0	
218.645	0	
201.822	0	
208.689	0	
202.372	0	
207.799	0	
215.799	0	
240.987	0	
213.42	0	
249.852	0	
292.426	0	
255.489	0	
284.05	0	
252.231	0	
228.731	0	
374.166	0	
286.55	0	
222.365	0	
198.96	0	
180.404	0	
234.04	0	
407.357	0	
209.58	0	
245.681	0	
350.297	0	
233.888	0	
283.946	0	
366.461	0	
206.535	0	
210.33	0	
196.821	0	
193.167	0	
209.637	0	
227.104	0	
202.885	0	
202.656	0	
219.506	0	
201.465	0	
203.988	0	
205.412	0	
202.745	0	
205.148	0	
205.268	0	
202.591	0	
204.626	0	
207.999	0	
227.096	0	
239.532	0	
303.041	0	
368.497	0	
204.412	0	
204.386	0	
206.643	0	
195.482	0	
204.957	0	
194.53	0	
223.218	0	
228.496	0	
209.669	0	
219.158	0	
201.895	0	
250.579	0	
197.201	0	
194.028	0	
247.7	0	
234.445	0	
199.526	0	
194.718	0	
178.187	0	
188.618	0	
189.371	0	
186.356	0	
184.813	0	
192.883	0	
256.481	0	
317.589	0	
392.283	0	
351.576	0	
284.522	0	
203.998	0	
386.14	0	
169.982	0	
401.047	0	
232.632	0	
192.045	0	
190.964	0	
221.069	0	
222.287	0	
252.743	0	
231.632	0	
212.76	0	
220.192	0	
76.7561	0	
96.5236	0	
302.583	0	
255.381	0	
343.491	0	
284.725	0	
231.187	0	
250.851	0	
206.87	0	
248.65	0	
219.333	0	
220.299	0	
198.866	0	
205.249	0	
201.336	0	
205.163	0	
210.579	0	
202.38	0	
202.66	0	
190.094	0	
309.053	0	
215.496	0	
206.103	0	
207.826	0	
239.164	0	
175.922	0	
216.591	0	
225.809	0	
209.985	0	
212.762	0	
230.237	0	
191.309	0	
199.25	0	
206.013	0	
195.427	0	
198.022	0	
343.152	0	
350.312	0	
198.469	0	
195.825	0	
196.705	0	
212.564	0	
200.016	0	
205.204	0	
331.19	0	
298.781	0	
220.946	0	
224.525	0	
343.813	0	
504.094	0	
351.231	0	
190.677	0	
174.423	0	
215.597	0	
100.617	0	
212.01	0	
219.681	0	
203.355	0	
101.087	0	
138.622	0	
220.164	0	
245.556	0	
315.58	0	
330.827	0	
325.463	0	
280.47	0	
204.098	0	
241.619	0	
347.356	0	
229.954	0	
200.639	0	
147.246	0	
182.369	0	
228.989	0	
235.107	0	
241.039	0	
198.88	0	
198.376	0	
358.583	0	
216.805	0	
187.528	0	
197.214	0	
221.194	0	
221.197	0	
226.469	0	
332.497	0	
253.335	0	
381.181	0	
206.806	0	
211.323	0	
203.302	0	
201.503	0	
311.869	0	
272.288	0	
192.612	0	
197.929	0	
182.986	0	
207.995	0	
186.338	0	
193.131	0	
196.062	0	
208.181	0	
196.341	0	
202.532	0	
250.013	0	
279.027	0	
215.778	0	
234.929	0	
235.061	0	
181.825	0	
234.208	0	
226.311	0	
78.0801	0	
80.2209	0	
269.615	0	
254.301	0	
313.281	0	
294.898	0	
252.169	0	
421.053	0	
305.664	0	
199.802	0	
222.205	0	
221.09	0	
230.091	0	
252.2	0	
240.61	0	
270.244	0	
234.268	0	
236.309	0	
352.271	0	
286.889	0	
192.582	0	
230.358	0	
352.725	0	
455.558	0	
377.717	0	
379.951	0	
391.272	0	
329.789	0	
427.89	0	
362.007	0	
154.584	0	
179.147	0	
307.177	0	
446.169	0	
351.11	0	
235.428	0	
211.555	0	
213.712	0	
552.18	0	
371.936	0	
180.187	0	
229.884	0	
345.465	0	
374.26	0	
197.896	0	
243.518	0	
130.258	0	
96.1101	0	
182.957	0	
149.271	0	
212.24	0	
208.681	0	
207.368	0	
83.2343	0	
463.842	0	
459.393	0	
485.328	0	
160.582	0	
190.917	0	
201.754	0	
361.672	0	
361.437	0	
174.354	0	
159.578	0	
299.882	0	
419.959	0	
248.691	0	
405.482	0	
404.748	0	
465.448	0	
105.834	0	
215.03	0	
154.094	0	
203.329	0	
21.0978	0	
215.378	0	
570.748	0	
77.1603	0	
192.054	0	
217.296	0	
234.748	0	
418.28	0	
196.989	0	
204.918	0	
107.014	0	
463.262	0	
248.09	0	
253.342	0	
212.147	0	
211.583	0	
597.195	0	
434.241	0	
188.875	0	
200.398	0	
83.0642	0	
128.768	0	
250.179	0	
501.106	0	
169.837	0	
331.044	0	
189.559	0	
247.454	0	
204.867	0	
217.092	0	
428.273	0	
417.369	0	
482.757	0	
464.918	0	
528.137	0	
390.519	0	
189.414	0	
209.909	0	
464.514	0	
383.989	0	
164.834	0	
190.08	0	
211.747	0	
207.624	0	
223.955	0	
219.247	0	
425.555	0	
354.454	0	
374.253	0	
445.248	0	
244.379	0	
207.67	0	
399.583	0	
174.551	0	
246.392	0	
223.211	0	
398.323	0	
428.931	0	
99.52	0	
76.0806	0	
240.704	0	
59.4116	0	
152.481	0	
216.203	0	
411.598	0	
462.716	0	
505.623	0	
196.18	0	
560.256	0	
476.852	0	
439.014	0	
201.689	0	
183.269	0	
208.531	0	
215.708	0	
217.107	0	
535.445	0	
650.555	0	
466.52	0	
603.501	0	
449.511	0	
321.594	0	
459.024	0	
500.36	0	
200.292	0	
60.4032	0	
452.238	0	
611.615	0	
175.575	0	
179.344	0	
187.262	0	
221.594	0	
668.539	0	
119.707	0	
518.826	0	
159.946	0	
667.712	0	
561.998	0	
195.296	0	
193.529	0	
522.491	0	
274.161	0	
596.322	0	
596.995	0	
518.036	0	
191.223	0	
182.753	0	
194.4	0	
496.659	0	
428.999	0	
206.378	0	
188.9	0	
79.4862	0	
76.9621	0	
245.204	0	
252.492	0	
92.0194	0	
80.5883	0	
461.258	0	
223.71	0	
36.3398	0	
213	0	
556.246	0	
649.092	0	
265.184	0	
185.387	0	
215.953	0	
222.64	0	
204.548	0	
218.254	0	
197.725	0	
239.559	0	
194.234	0	
20.8326	0	
682.432	0	
467.938	0	
163.29	0	
142.409	0	
500.946	0	
474.081	0	
200.135	0	
96.3135	0	
88.9235	0	
89.0372	0	
252.254	0	
252.606	0	
234.247	0	
246.659	0	
741.538	0	
187.395	0	
200.994	0	
203.587	0	
595.968	0	
526.699	0	
191.327	0	
193.334	0	
221.387	0	
222.367	0	
308.619	0	
314.094	0	
162.242	0	
519.344	0	
413.179	0	
537.44	0	
42.5739	0	
177.94	0	
641.026	0	
721.345	0	
498.299	0	
102.268	0	
88.4961	0	
103.811	0	
184.56	0	
192.408	0	
124.27	0	
98.5993	0	
252.396	0	
251.349	0	
549.124	0	
517.872	0	
156.015	0	
142.673	0	
208.368	0	
192.161	0	
229.947	0	
92.2136	0	
183.053	0	
210.616	0	
209.497	0	
212.022	0	
690.346	0	
607.541	0	
497.043	0	
520.561	0	
206.648	0	
210.914	0	
621.71	0	
19.0726	0	
533.222	0	
221.098	0	
114.898	0	
208.448	0	
194.846	0	
219.51	0	
207.861	0	
207.144	0	
89.7726	0	
217.788	0	
610.122	0	
723.434	0	
697.349	0	
743.355	0	
365.265	0	
391.656	0	
544.82	0	
581.425	0	
155.577	0	
250.799	0	
809.309	0	
754.67	0	
269.585	0	
208.948	0	
111.268	0	
128.321	0	
103.628	0	
115.526	0	
187.239	0	
308.717	0	
240.178	0	
249.268	0	
246.358	0	
247.164	0	
777.722	0	
120.035	0	
490.6	0	
176.089	0	
704.463	0	
49.7324	0	
196.08	0	
194.837	0	
182.748	0	
234.748	0	
127.241	0	
166.706	0	
72.6222	0	
189.394	0	
140.502	0	
168.466	0	
637.247	0	
571.056	0	
694.289	0	
733.314	0	
139.4	0	
77.0269	0	
505.102	0	
174.212	0	
489.783	0	
240.701	0	
723.005	0	
559.329	0	
187.327	0	
24.5006	0	
597.528	0	
617.157	0	
392.438	0	
159.407	0	
79.7431	0	
66.2027	0	
552.884	0	
615.981	0	
465.23	0	
510.39	0	
234.748	0	
240.398	0	
98.6596	0	
103.123	0	
123.547	0	
113.519	0	
199.678	0	
207.263	0	
250.497	0	
247.95	0	
249.546	0	
249.057	0	
45.4356	0	
80.1368	0	
177.756	0	
208.554	0	
485.289	0	
554.342	0	
642.998	0	
785.022	0	
452.095	0	
481.376	0	
537.719	0	
491.46	0	
196.904	0	
200.41	0	
234.748	0	
355.715	0	
116.828	0	
106.387	0	
245.479	0	
248.303	0	
243.238	0	
244.448	0	
48.4222	0	
113.282	0	
432.112	0	
571.793	0	
549.395	0	
483.305	0	
193.488	0	
219.588	0	
270.8	0	
195.492	0	
166.395	0	
236.27	0	
66.6618	0	
234.748	0	
171.11	0	
183.673	0	
806.27	0	
20.2902	0	
61.11	0	
172.483	0	
234.748	0	
114.601	0	
243.896	0	
242.496	0	
163.298	0	
234.748	0	
120.14	0	
595.222	0	
485.326	0	
493.941	0	
198.546	0	
185.912	0	
116.127	0	
130.303	0	
147.331	0	
135.66	0	
267.567	0	
470.356	0	
134.538	0	
122.389	0	
242.918	0	
242.786	0	
228.182	0	
414.057	0	
145.484	0	
157.904	0	
530.392	0	
511.493	0	
139.117	0	
101.344	0	
251.979	0	
152.667	0	
122.002	0	
129.828	0	
72.3365	0	
234.569	0	
28.9279	0	
19.9298	0	
26.3882	0	
13.1915	0	
27.9107	0	
25.4886	0	
13.6466	0	
26.6155	0	
787.917	0	
828.877	0	
414.365	0	
472.348	0	
134.764	0	
128.74	0	
234.748	0	
234.748	0	
504.856	0	
404.626	0	
138.297	0	
234.748	0	
245.527	0	
240.368	0	
751.065	0	
804.205	0	
127.426	0	
126.966	0	
240.24	0	
242.089	0	
202.866	0	
179.372	0	
552.763	0	
148.622	0	
127.573	0	
234.748	0	
528.238	0	
222.215	0	
43.4978	0	
85.5158	0	
136.824	0	
234.748	0	
240.639	0	
234.748	0	
184.062	0	
757.09	0	
113.814	0	
310.954	0	
128.247	0	
136.797	0	
207.375	0	
143.426	0	
378.713	0	
610.004	0	
411.147	0	
141.394	0	
234.748	0	
234.748	0	
242.404	0	
234.748	0	
236.077	0	
241.686	0	
238.236	0	
234.748	0	
202.023	0	
236.504	0	
234.748	0	
132.879	0	
240.542	0	
239.003	0	
204.634	0	
223.47	0	
193.68	0	
211.56	0	
167.078	0	
157.94	0	
604.494	0	
725.508	0	
606.502	0	
104.381	0	
234.748	0	
234.748	0	
234.748	0	
234.748	0	
234.748	0	
510.719	0	
234.748	0	
176.862	0	
236.729	0	
234.748	0	
234.748	0	
234.748	0	
234.748	0	
234.748	0	
234.748	0	
234.748	0	
234.748	0	
234.748	0	
63.346	0	
142.749	0	
225.893	0	
107.716	0	
171.686	0	
206.029	0	
227.4	0	
234.748	0	
169.017	0	
186.652	0	
139.607	0	
234.748	0	
280.339	0	
234.748	0	
211.464	0	
222.751	0	
570.485	0	
569.914	0	
234.476	0	
234.748	0	
253.462	0	
268.419	0	
710.235	0	
638.925	0	
477.261	0	
238.656	0	
147.795	0	
283.782	0	
183.687	0	
234.748	0	
234.748	0	
234.748	0	
384.842	0	
411.29	0	
112.69	0	
199.356	0	
506.731	0	
299.611	0	
234.748	0	
234.748	0	
229.301	0	
234.748	0	
223.299	0	
185.671	0	
228.142	0	
230.769	0	
234.748	0	
234.748	0	
275.714	0	
271.942	0	
411.939	0	
304.327	0	
234.748	0	
160.789	0	
234.748	0	
234.748	0	
220.906	0	
229.177	0	
234.748	0	
234.748	0	
380.722	0	
520.413	0	
230.093	0	
234.748	0	
433.871	0	
370.086	0	
234.748	0	
192.027	0	
234.748	0	
234.748	0	
234.748	0	
234.748	0	
234.748	0	
234.748	0	
212.726	0	
234.748	0	
234.748	0	
234.748	0	
290.552	0	
217.069	0	
219.052	0	
279.152	0	
234.748	0	
336.963	0	
220.2	0	
234.748	0	
234.748	0	
234.748	0	
234.748	0	
313.583	0	
243.36	0	
233.704	0	
220.261	0	
215.188	0	
293.64	0	
234.748	0	
234.748	0	
234.748	0	
234.748	0	
234.748	0	
277.81	0	
327.268	0	
479.846	0	
380.886	0	
234.748	0	
234.748	0	
335.441	0	
293.276	0	
234.748	0	
234.748	0	
234.748	0	
234.748	0	
242.504	0	
310.048	0	
234.748	0	
234.748	0	
228.381	0	
229.305	0	
234.748	0	
234.748	0	
234.748	0	
234.748	0	
247.382	0	
234.748	0	
234.748	0	
234.748	0	
234.582	0	
234.748	0	
234.748	0	
234.748	0	
234.748	0	
234.748	0	
234.748	0	
234.748	0	
234.748	0	
234.748	0	
287.737	0	
234.748	0	
234.748	0	
234.748	0	
234.748	0	
234.748	0	
234.748	0	
234.748	0	
234.748	0	
234.748	0	
234.748	0	
234.748	0	
234.748	0	
234.748	0	
234.748	0	
234.748	0	
230.366	0	
234.748	0	
234.748	0	
234.748	0	
234.748	0	
234.748	0	
234.748	0	
234.748	0	
234.748	0	
234.748	0	
234.748	0	
231.229	0	
234.748	0	
234.748	0	
234.748	0	
234.748	0	
234.748	0	
234.748	0	
234.748	0	
234.748	0	
234.748	0	
234.748	0	
234.748	0	
234.748	0	
234.748	0	
234.748	0	
234.748	0	
234.748	0	
234.748	0	
234.748	0	
234.748	0	
234.748	0	
234.748	0	
234.748	0	
234.748	0	
234.748	0	
234.748	0	
234.748	0	
234.748	0	
234.748	0	
234.748	0	
234.748	0	
234.748	0	
234.748	0	
234.748	0	
234.748	0	
234.748	0	
234.748	0	
234.748	0	
234.748	0	
234.748	0	
234.748	0	
234.748	0	
234.748	0	
234.748	0	
234.748	0	
234.748	0	
234.748	0	
234.748	0	
234.748	0	
234.748	0	
234.748	0	
234.748	0	
234.748	0	
234.748	0	
234.748	0	
234.748	0	
234.748	0	
234.748	0	
234.748	0	
234.748	0	
234.748	0	
234.748	0	
234.748	0	
234.748	0	
234.748	0	
234.748	0	
234.748	0	
234.748	0	
234.748	0	
234.748	0	
234.748	0	
234.748	0	
234.748	0	
234.748	0	
234.748	0	
234.748	0	
234.748	0	
234.748	0	
234.748	0	
234.748	0	
234.748	0	
234.748	0	
234.748	0	
234.748	0	
234.748	0	
234.748	0	
234.748	0	
234.748	0	
234.748	0	
234.748	0	
234.748	0	
234.748	0	
234.748	0	
234.748	0	
234.748	0	
234.748	0	
234.748	0	
234.748	0	
234.748	0	
234.748	0	
234.748	0	
234.748	0	
234.748	0	
234.748	0	
234.748	0	
234.748	0	
234.748	0	
234.748	0	
234.748	0	
234.748	0	
234.748	0	
234.748	0	
234.748	0	
234.748	0	
234.748	0	
234.748	0	
234.748	0	
234.748	0	
234.748	0	
234.748	0	
234.748	0	
234.748	0	
234.748	0	
234.748	0	
234.748	0	
234.748	0	
234.748	0	
234.748	0	
234.748	0	
234.748	0	
234.748	0	
234.748	0	
234.748	0	
234.748	0	
234.748	0	
234.748	0	
234.748	0	
234.748	0	
234.748	0	
234.748	0	
234.748	0	
234.748	0	
234.748	0	
234.748	0	
234.748	0	
234.748	0	
234.748	0	
234.748	0	
234.748	0	
234.748	0	
234.748	0	
234.748	0	
234.748	0	
234.748	0	
234.748	0	
234.748	0	
234.748	0	
234.748	0	
234.748	0	
234.748	0	
234.748	0	
234.748	0	
234.748	0	
234.748	0	
234.748	0	
234.748	0	
234.748	0	
234.748	0	
234.748	0	
234.748	0	
234.748	0	
234.748	0	
234.748	0	
234.748	0	
234.748	0	
234.748	0	
234.748	0	
234.748	0	
234.748	0	
234.748	0	
234.748	0	
234.748	0	
234.748	0	
234.748	0	
234.748	0	
234.748	0	
234.748	0	
234.748	0	
234.748	0	
234.748	0	
234.748	0	
234.748	0	
234.748	0	
234.748	0	
234.748	0	
234.748	0	
234.748	0	
234.748	0	
234.748	0	
234.748	0	
234.748	0	
234.748	0	
234.748	0	
234.748	0	
234.748	0	
234.748	0	
234.748	0	
234.748	0	
234.748	0	
234.748	0	
234.748	0	
234.748	0	
234.748	0	
234.748	0	
234.748	0	
234.748	0	
234.748	0	
234.748	0	
234.748	0	
